<?xml version="1.0" encoding="utf-8"?>
<!-- Generator: Adobe Illustrator 16.0.0, SVG Export Plug-In . SVG Version: 6.00 Build 0)  -->
<!DOCTYPE svg PUBLIC "-//W3C//DTD SVG 1.1//EN" "http://www.w3.org/Graphics/SVG/1.1/DTD/svg11.dtd">
<svg version="1.1" id="Layer_1" xmlns="http://www.w3.org/2000/svg" xmlns:xlink="http://www.w3.org/1999/xlink" x="0px" y="0px"
	 width="938.499px" height="601px" viewBox="0 0 938.499 601" enable-background="new 0 0 938.499 601" xml:space="preserve">
<path id="body" fill-rule="evenodd" clip-rule="evenodd" fill="#F4F4F4" stroke="#807F7F" stroke-width="0.2015" stroke-miterlimit="2.613" d="
	M107.63,247.033c34.011-24.27,8.949-66.92-26.655-50.79C50.487,108.162,60.394,70.523,153.044,58.83
	c5.308-0.67,10.793-1.439,17.256-2.65c3.051-0.777,6.154-0.91,7.254-0.603c2.859,0.8,3.016,4.021,6.411,3.601
	c3.101-1.276,7.151-2.361,10.31-4.659c1.945-1.457,5.013-0.706,9.2,1.941c0.549,0.343,1.067,0.637,1.65,0.918
	c35.726,17.058,75.478,18.917,121.663-3.095c0.626-0.295,0.981-0.42,1.679-0.422c5.054,0.293,8.559,3.772,13.258,5.148
	c3.37-1.63,3.921-4.203,5.564-3.959c5.743,0.045,15.46,2.648,19.259,2.928c5.438,0.458,10.009,1.04,15.447,2.047
	c82.555,11.543,91.121,59.781,63.753,136.218c-35.08-16.563-60.678,24.973-26.655,50.79c0,0-4.113,16.488-9.465,27.408
	c0,0,0.354,6.771,0.473,15.391c0.12,8.618-4.647,34.331-5.829,38.886c-1.184,4.555-3.542,22.963-1.794,27.289
	c0.12,3.444,0.302,21.876-0.23,26.774c-0.529,4.901-5.296,16.908-6.295,21.869c-1,4.96,0.394,9.144,0.75,14.93
	c0.354,5.786,2.671,11.749,3.378,18.118c0.705,6.37-1.214,16.079-2.332,19.079c-1.118,3.005-1.47,14.396-1.118,16.419
	c0.354,2.022,2.025,15.811,2.025,16.545s-0.56,4.264-3.857,7.693c-3.294,3.431-2.679,10.589-3.033,16.866
	c-0.199,6.311,0.694,21.284-0.251,23.13c-0.945,1.847-15.511,5.981-26.212,5.197c-9.011,1.976-33.075-3.483-56.785,4.661
	c-5.877,2.019-17.983-1.074-29.207,3.831l-30.237,0.38c-11.837-2.465-24.892-2.209-26.508-2.927
	c-3.308-1.475-6.951-4.076-10.734-4.447c-3.784-0.367-41.265-1.899-49.208-1.899c-8.372-0.929-16.578,1.865-27.63-5.114
	c-0.088-0.183-0.849-6.355-0.615-8.187c-0.116-0.482,0.022-5.521-0.088-10.845c-0.114-5.545-0.48-11.413-0.511-12.911
	c-0.06-2.941-1.598-7.721-3.479-8.946c-3.638-2.731-3.646-1.464-1.753-13.982c1.89-11.08,0.455-23.527,0.455-24.262
	c0-0.736-2.319-8.81-2.793-14.474c-0.206-2.463,0.629-6.895,0.344-10.629c-0.37-4.849,2.52-9.071,2.987-11.855
	c0.428-2.539,0.701-8.616-0.229-14.663c-0.876-5.679-2.911-11.3-4.25-15.036c-0.989-2.415-1.944-5.516-2.455-9.113
	c-0.577-4.039,0.777-8.667,0.571-12.75c-0.193-3.797,0.621-7.233,1.011-9.84c-0.334-8.939-0.4-17.4-1.254-25.142
	c-0.895-8.115-2.604-15.459-3.726-22.004c-6.813-27.003-1.111-30.6-3.556-35.298C113.612,268.213,110.142,254.354,107.63,247.033z
	 M521.171,244.15c1.702,5.84,1.981,6.801,4.997,16.613c0.551,1.926,2.648,11.979,2.49,13.528
	c-1.951,19.282,0.235,21.928,3.995,36.671c2.699,12.911,4.101,29.639,4.827,40.537c0.207,3.097-2.473,16.57-1.562,25.166
	c0.524,4.953,1.88,7.122,2.085,7.76c3.299,8.442,5.416,17.241,5.327,26.615c-1.416,6.729-3.139,11.426-3.376,16.973
	c-0.187,4.392-0.558,8.564-0.148,12.396c0.453,4.265,1.825,8.01,2.523,12.231c0.566,3.411,0.527,7.246,0.596,11.136
	c0.117,6.573-1.199,16.532-2.226,24.786c-0.038,1.087-0.101,1.913,0.766,2.501c9.811,5.849,4.304,27.515,6.659,40.193
	c0.139,1.126,0.082,1.359,1.021,1.951c4.496,2.832,18.684,4.754,28.539,5.328c16.426,0.961,31.473,0.986,54.215,7.373
	c4.204,1.179,10.54,2.297,14.828,2.565c6.225,0.606,11.908,1.286,17.146,1.288l25.758,0.011c24.578,0.013,35.807-7.03,55.221-8.205
	c31.387-3.313,56.436-2.897,59.523-9.691c0.412-4.858,0.588-10.993,0.693-18.453c0.141-9.779-0.127-20.657,6.793-25.117
	c-2.197-14.42-3.406-29.607-0.805-37.747c2.551-6.098,1.68-13.817,1.674-20.935c-0.002-4.296-3.248-8.094-3.016-12.155
	c0.221-3.919-1.408-8.126-1.113-11.908c0.75-11.36,5.145-18.662,6.65-25.663c2.025-9.398,1.072-18.634,0.275-39.996
	c-0.113-3.135,0.357-5.526,0.951-8.662c4.572-24.138,8.1-43.461,6.717-60.862c4.754-6.637,6.314-18.671,8.9-26.228
	c-33.938-24.918-8.248-67.281,26.107-51.045c27.977-70.374,18.229-116.935-46.084-133.855c-16.432-4.323-30.699-4.059-40.768-6.885
	c-4.436-2.365-8.566-4.481-16.012,3.066c-0.66,0.612-2.123,0.134-2.757-0.146c-5.159-2.276-9.59-8.132-14.661-3.886
	c-50.893,24.775-94.082,15.174-123.783-0.063c-2.045-1.618-3.856-1.821-5.732-1.038c-1.139,0.476-2.191,1.287-3.203,2.135
	c-1.827,1.535-3.95,2.699-6.455,3.563c-0.573,0.199-0.768,0.121-1.318-0.175c-3.172-1.153-4.076-4.028-6.816-4.453
	c-3.703-0.573-9.713,1.554-15.527,2.134c-11.725,1.172-25.098,2.916-37.556,6.625c-5.574,1.66-11.259,3.453-16.212,5.547
	c-5.719,2.416-10.563,5.139-14.716,6.994c-37.423,22.758-32.234,63.809-12.622,120.69
	C529.792,176.174,555.086,220.088,521.171,244.15z"/>
<path id="right_side_com" fill-rule="evenodd" clip-rule="evenodd" fill="#F4F4F4" stroke="#807F7F" stroke-width="0.2015" stroke-miterlimit="2.613" d="
	M109.966,254.658c8.966-3.915,18.022-8.534,20.496-13.2c15.784,104.04,20.617,203.069,22.412,300.58
	c-5.35-0.036-11.076-0.627-17.881-4.926c-0.088-0.183-0.849-6.355-0.615-8.187c-0.116-0.482,0.022-5.521-0.088-10.845
	c-0.114-5.545-0.48-11.413-0.511-12.911c-0.06-2.941-1.598-7.721-3.479-8.946c-3.638-2.731-3.646-1.464-1.753-13.982
	c1.89-11.08,0.455-23.527,0.455-24.262c0-0.736-2.319-8.81-2.793-14.474c-0.206-2.463,0.629-6.895,0.344-10.629
	c-0.37-4.849,2.52-9.071,2.987-11.855c0.428-2.539,0.701-8.616-0.229-14.663c-0.876-5.679-2.911-11.3-4.25-15.036
	c-0.989-2.415-1.944-5.516-2.455-9.113c-0.577-4.039,0.777-8.667,0.571-12.75c-0.193-3.797,0.621-7.233,1.011-9.84
	c-0.334-8.939-0.4-17.4-1.254-25.142c-0.895-8.115-2.604-15.459-3.726-22.004c-6.813-27.003-1.111-30.6-3.556-35.298
	C114.196,270.777,112.012,261.888,109.966,254.658z M809.223,237.037c-15.795,104.109-21.037,203.288-22.83,300.857
	c9.92-1.149,16.496-2.748,17.984-6.018c0.412-4.858,0.588-10.993,0.693-18.453c0.141-9.779-0.127-20.657,6.793-25.117
	c-2.197-14.42-3.406-29.607-0.805-37.747c2.551-6.098,1.68-13.817,1.674-20.935c-0.002-4.296-3.248-8.094-3.016-12.155
	c0.221-3.919-1.408-8.126-1.113-11.908c0.75-11.36,5.145-18.662,6.65-25.663c2.025-9.398,1.072-18.634,0.275-39.996
	c-0.113-3.135,0.357-5.526,0.951-8.662c4.572-24.138,8.1-43.461,6.717-60.862c3.35-4.675,5.113-12.025,6.766-18.604
	C821.329,247.516,811.989,242.256,809.223,237.037z"/>
<path id="left_side_com" fill-rule="evenodd" clip-rule="evenodd" fill="#F4F4F4" stroke="#807F7F" stroke-width="0.2015" stroke-miterlimit="2.613" d="
	M396.251,241.368c3.057,5.765,11.861,11.884,19.722,16.534c-1.66,5.25-3.87,11.49-6.345,16.539c0,0,0.354,6.771,0.473,15.391
	c0.12,8.618-4.647,34.331-5.829,38.886c-1.184,4.555-3.542,22.963-1.794,27.289c0.12,3.444,0.302,21.876-0.23,26.774
	c-0.529,4.901-5.296,16.908-6.295,21.869c-1,4.96,0.394,9.144,0.75,14.93c0.354,5.786,2.671,11.749,3.378,18.118
	c0.705,6.37-1.214,16.079-2.332,19.079c-1.118,3.005-1.47,14.396-1.118,16.419c0.354,2.022,2.025,15.811,2.025,16.545
	s-0.56,4.264-3.857,7.693c-3.294,3.431-2.679,10.589-3.033,16.866c-0.199,6.311,0.694,21.284-0.251,23.13
	c-0.719,1.403-9.315,4.131-18.099,5.013C375.208,444.802,380.445,345.555,396.251,241.368z M566.702,537.5
	c-1.79-97.655-6.487-194.22-22.296-298.421c-3.886,7.331-12.334,13.228-19.415,17.848l1.178,3.837
	c0.551,1.926,2.648,11.979,2.49,13.528c-1.951,19.282,0.235,21.928,3.995,36.671c2.699,12.911,4.101,29.639,4.827,40.537
	c0.207,3.097-2.473,16.57-1.562,25.166c0.524,4.953,1.88,7.122,2.085,7.76c3.299,8.442,5.416,17.241,5.327,26.615
	c-1.416,6.729-3.139,11.426-3.376,16.973c-0.187,4.392-0.558,8.564-0.148,12.396c0.453,4.265,1.825,8.01,2.523,12.231
	c0.566,3.411,0.527,7.246,0.596,11.136c0.117,6.573-1.199,16.532-2.226,24.786c-0.038,1.087-0.101,1.913,0.766,2.501
	c9.811,5.849,4.304,27.515,6.659,40.193c0.139,1.126,0.082,1.359,1.021,1.951c2.963,1.867,10.138,3.338,17.508,4.288L566.702,537.5z
	"/>
<path id="right_sleeve" fill-rule="evenodd" clip-rule="evenodd" fill="#F4F4F4" stroke="#807F7F" stroke-width="0.216" stroke-miterlimit="2.6131" d="
	M72.863,95.024c30.92,17.563,49.899,52.981,50.799,92.812c-16-13.598-32.871-9.521-46.833-4.74
	C65.99,154.407,59.815,115.8,72.863,95.024z M863.028,91.519c-29.291,18.942-47.492,57.28-49.896,95.855
	c13.658-14.527,33.654-14.015,49.809-6.978C872.653,152.711,878.834,114.803,863.028,91.519z"/>
<path id="left_sleeve" fill-rule="evenodd" clip-rule="evenodd" fill="#F4F4F4" stroke="#807F7F" stroke-width="0.216" stroke-miterlimit="2.6131" d="
	M449.892,183.096c-16.154-7.037-35.931-7.086-49.591,7.441c2.405-38.575,20.568-77.493,49.859-96.436
	C465.966,117.384,459.605,155.409,449.892,183.096z M489.692,180.396c13.961-4.781,31.867-8.631,47.994,5.594
	c-0.902-39.829-19.975-76.289-50.896-93.854C473.743,112.913,479.603,150.957,489.692,180.396z"/>
<path id="shoulder" fill-rule="evenodd" clip-rule="evenodd" fill="#F4F4F4" stroke="#807F7F" stroke-width="0.216" stroke-miterlimit="2.6131" d="
	M486.791,92.137c10.608-20.477,44.418-34.586,89.782-38.817c8.047-1.573,11.899-2.451,14.289-1.91
	c2.822,0.642,3.625,2.998,7.211,4.68c45.59,33.688,105.254,33.907,156.475-0.367c5.383-5.776,10.984-6.905,16.809-3.362
	c3.15,0.99,6.512,1.59,9.701,1.859c40.514,3.398,67.768,15.254,81.971,37.3c-24.867,17.144-40.863,43.089-47.674,78.15
	l-279.072,0.003C529.105,128.715,509.831,105.605,486.791,92.137z M450.153,94.106c-11.256-17.581-32.99-29.163-68.16-34.081
	c-5.438-1.007-10.008-1.589-15.448-2.047c-3.798-0.279-13.514-2.881-19.257-2.928c-1.643-0.242-2.194,2.329-5.565,3.959
	c-4.697-1.375-8.203-4.854-13.257-5.148c-0.699,0.004-1.054,0.127-1.679,0.424c-46.187,22.011-85.937,20.152-121.663,3.093
	c-0.583-0.281-1.1-0.573-1.649-0.918c-4.188-2.646-7.256-3.397-9.2-1.94c-3.16,2.297-7.208,3.383-10.311,4.66
	c-3.395,0.42-3.552-2.803-6.41-3.602c-1.101-0.309-4.204-0.176-7.255,0.602c-6.462,1.211-11.948,1.982-17.256,2.65
	c-43.521,5.493-68.783,16.713-80.178,36.195c25.391,14.688,44.878,40.252,50.231,83.135l278.792-0.059
	C406.61,146.537,421.274,113.295,450.153,94.106z"/>
<path id="neck_line" fill-rule="evenodd" clip-rule="evenodd" fill="#F4F4F4" stroke="#807F7F" stroke-width="0.25" stroke-miterlimit="2.6131" d="
	M598.165,56.016c8.307-1.896,10.035-10.115,16.064-4.691c36.978,18.271,76.369,22.055,123.775-0.042
	c6.338-5.06,12.695,5.189,17.34,4.407C707.336,89.84,638.997,89.722,598.165,56.016z M263.211,167.544
	c34.564-9.933,77.138-57.518,87.619-100.975c-5.223-7.134-18.822-11.974-22.904-12.896c-42.07,19.839-82.816,24.893-131.275-0.715
	c-5.821,3.879-19.327,8.797-20.458,11.947C181.045,99.574,218.842,150.33,263.211,167.544z"/>
<path id="left_cuffs" fill-rule="evenodd" clip-rule="evenodd" fill="#F4F4F4" stroke="#807F7F" stroke-width="0.216" stroke-miterlimit="2.6131" d="
	M525.024,257.75l-3.963-13.604c32.967-22.915,9.902-67.395-27.075-50.791l-4.294-12.959
	C547.311,156.943,573.736,230.284,525.024,257.75z M415.128,260.637l3.963-13.604c-32.967-22.915-10.322-67.394,26.655-50.79
	l4.146-13.147C392.273,159.643,366.415,233.172,415.128,260.637z"/>
<path id="right_cuffs" fill-rule="evenodd" clip-rule="evenodd" fill="#F4F4F4" stroke="#807F7F" stroke-width="0.216" stroke-miterlimit="2.6131" d="
	M111.595,260.637l-3.963-13.604c32.966-22.915,10.322-67.394-26.656-50.79l-4.146-13.147
	C134.449,159.643,160.307,233.172,111.595,260.637z M828.379,257.905l3.287-13.759c-32.041-23.592-10.074-67.578,26.654-50.79
	l4.146-13.147C804.846,156.755,779.667,230.44,828.379,257.905z"/>
<path fill-rule="evenodd" clip-rule="evenodd" fill="#F4F4F4" stroke="#807F7F" stroke-width="0.216" stroke-miterlimit="2.6131" d="
	M328.575,73.43c-38.18,20.756-81.472,21.109-129.231,3.636c12.474,25.691,36.537,55.902,63.443,66.788
	C292.029,134.334,311.213,112.701,328.575,73.43z"/>
</svg>
