<?xml version="1.0" encoding="utf-8"?>
<!-- Generator: Adobe Illustrator 19.0.0, SVG Export Plug-In . SVG Version: 6.00 Build 0)  -->
<svg version="1.1" id="Layer_1" xmlns="http://www.w3.org/2000/svg" xmlns:xlink="http://www.w3.org/1999/xlink" x="0px" y="0px"
	 viewBox="0 0 780.8 473.7" style="enable-background:new 0 0 780.8 473.7;" xml:space="preserve">
<style type="text/css">
	.st0{fill:#FFFFFF;}
</style>
<g id="XMLID_27_">
	<path id="XMLID_124_" d="M21,462.3l6.1,1.8c-0.9,3.2-2.5,5.6-4.7,7.2c-2.2,1.6-4.9,2.3-8.3,2.3c-4.1,0-7.5-1.3-10.2-4
		c-2.7-2.7-4-6.3-4-11c0-4.9,1.3-8.7,4-11.5c2.7-2.7,6.2-4.1,10.5-4.1c3.8,0,6.9,1.1,9.3,3.2c1.4,1.3,2.5,3.1,3.2,5.4l-6.2,1.4
		c-0.4-1.5-1.1-2.7-2.3-3.6c-1.2-0.9-2.6-1.3-4.3-1.3c-2.3,0-4.2,0.8-5.6,2.4c-1.4,1.6-2.2,4.1-2.2,7.6c0,3.7,0.7,6.4,2.1,8
		c1.4,1.6,3.3,2.4,5.5,2.4c1.7,0,3.1-0.5,4.3-1.5C19.6,466,20.5,464.5,21,462.3z M50.9,460c0,2.3-0.1,4-0.3,5
		c-0.2,1-0.7,1.9-1.6,2.5c-0.9,0.7-2.2,1-4,1c-1.8,0-3.1-0.4-4.1-1.1c-1-0.7-1.7-1.7-1.9-2.9c-0.2-0.8-0.2-2.4-0.2-4.9v-16h-6.3
		v15.8c0,3.3,0.2,5.8,0.6,7.5c0.3,1.1,0.9,2.2,1.8,3.3c0.9,1,2.1,1.9,3.6,2.5c1.5,0.7,3.8,1,6.8,1c2.5,0,4.5-0.3,6-0.9
		c1.5-0.6,2.7-1.4,3.7-2.4c0.9-1,1.5-2.2,1.9-3.7c0.3-1.5,0.5-4,0.5-7.5v-15.5h-6.3V460z M82.8,456.8c-1.5-0.7-3.7-1.4-6.8-2.1
		c-3.1-0.7-5-1.3-5.8-2c-0.6-0.5-0.9-1.1-0.9-1.8c0-0.8,0.3-1.4,1-1.8c1-0.7,2.5-1.1,4.3-1.1c1.8,0,3.1,0.3,4,1
		c0.9,0.7,1.5,1.8,1.7,3.3l6.3-0.3c-0.1-2.7-1.1-4.9-3.1-6.5s-4.9-2.4-8.8-2.4c-2.4,0-4.4,0.3-6.1,1c-1.7,0.7-3,1.7-3.9,3
		c-0.9,1.3-1.3,2.7-1.3,4.2c0,2.3,1,4.3,2.9,5.9c1.4,1.2,3.7,2.1,7.1,2.9c2.6,0.6,4.3,1,5,1.3c1.1,0.4,1.8,0.8,2.3,1.3
		c0.4,0.5,0.6,1.1,0.6,1.8c0,1.1-0.5,2-1.5,2.8c-1,0.8-2.6,1.2-4.6,1.2c-1.9,0-3.4-0.5-4.5-1.4c-1.1-0.9-1.9-2.3-2.2-4.3l-6.1,0.6
		c0.4,3.3,1.7,5.8,3.8,7.5c2.1,1.7,5.1,2.6,9.1,2.6c2.7,0,5-0.4,6.8-1.1c1.8-0.7,3.2-1.8,4.2-3.3c1-1.5,1.5-3.1,1.5-4.8
		c0-1.9-0.4-3.4-1.2-4.7C85.5,458.6,84.3,457.6,82.8,456.8z M90.6,448.6h9.2v24.5h6.3v-24.5h9.2v-5H90.6V448.6z M143.3,447.2
		c2.7,2.7,4.1,6.5,4.1,11.3c0,4.8-1.4,8.5-4.1,11.2c-2.7,2.7-6.4,4-10.9,4c-4.6,0-8.3-1.3-11-4c-2.7-2.7-4.1-6.4-4.1-11.1
		c0-3,0.5-5.5,1.4-7.6c0.7-1.5,1.7-2.9,2.9-4c1.2-1.2,2.6-2.1,4-2.7c1.9-0.8,4.2-1.2,6.7-1.2C136.9,443.1,140.6,444.5,143.3,447.2z
		 M140.9,458.3c0-3.4-0.8-5.9-2.3-7.6c-1.6-1.7-3.6-2.5-6.2-2.5c-2.6,0-4.7,0.8-6.3,2.5c-1.6,1.7-2.4,4.2-2.4,7.6
		c0,3.3,0.8,5.9,2.4,7.6c1.6,1.7,3.7,2.6,6.2,2.6c2.5,0,4.6-0.9,6.2-2.6C140.1,464.3,140.9,461.7,140.9,458.3z M167.3,463.8
		l-5.6-20.1h-9.4v29.5h5.8v-23.2l6.2,23.2h6l6.2-23.2v23.2h5.8v-29.5h-9.4L167.3,463.8z M226.6,443.6l12.4,29.5h-6.8l-2.7-6.7h-12.4
		l-2.6,6.7h-6.7l12.1-29.5H226.6z M227.5,461.5l-4.3-11l-4.2,11H227.5z M264.4,447c1.2,1.5,1.8,3.4,1.8,5.8c0,1.8-0.3,3.3-1,4.6
		c-0.7,1.2-1.6,2.2-2.6,2.9c-1.1,0.7-2.2,1.2-3.3,1.4c-1.5,0.3-3.7,0.4-6.5,0.4h-4.1v11.1h-6.3v-29.5h10.1c3.8,0,6.3,0.1,7.5,0.4
		C261.7,444.5,263.2,445.5,264.4,447z M259.8,452.8c0-1.1-0.3-2-1-2.7s-1.5-1.1-2.5-1.3c-0.7-0.1-2.3-0.2-4.5-0.2h-3v8.4h3.4
		c2.5,0,4.1-0.2,5-0.5c0.8-0.3,1.5-0.8,2-1.5C259.5,454.4,259.8,453.7,259.8,452.8z M294.2,457.3c-0.7,1.2-1.6,2.2-2.6,2.9
		c-1.1,0.7-2.2,1.2-3.3,1.4c-1.5,0.3-3.7,0.4-6.5,0.4h-4.1v11.1h-6.3v-29.5h10.1c3.8,0,6.3,0.1,7.5,0.4c1.8,0.4,3.3,1.4,4.5,2.9
		c1.2,1.5,1.8,3.4,1.8,5.8C295.2,454.5,294.9,456,294.2,457.3z M288.7,452.8c0-1.1-0.3-2-1-2.7c-0.7-0.7-1.5-1.1-2.5-1.3
		c-0.7-0.1-2.3-0.2-4.5-0.2h-3v8.4h3.4c2.5,0,4.1-0.2,5-0.5c0.8-0.3,1.5-0.8,2-1.5C288.5,454.4,288.7,453.7,288.7,452.8z
		 M312.7,443.6l12.4,29.5h-6.8l-2.7-6.7h-12.4l-2.6,6.7H294l12.1-29.5H312.7z M313.6,461.5l-4.3-11l-4.2,11H313.6z M352.7,467.4
		l3.8,5.8H349l-4.5-6.4c-1.6-2.3-2.7-3.7-3.3-4.3c-0.6-0.6-1.2-1-1.9-1.2c-0.7-0.2-1.7-0.3-3.2-0.3h-1.3v12.3h-6.3v-29.5h13.2
		c3.3,0,5.7,0.3,7.2,0.8c1.5,0.5,2.7,1.5,3.6,2.8c0.9,1.4,1.4,2.9,1.4,4.7c0,2.2-0.7,4-2.1,5.5c-1.4,1.4-3.4,2.4-6.2,2.7
		c1.4,0.8,2.5,1.6,3.4,2.5C350,463.5,351.2,465.1,352.7,467.4z M345.1,455.8c0.7-0.2,1.3-0.7,1.8-1.2c0.4-0.6,0.6-1.3,0.6-2.2
		c0-1-0.3-1.8-0.8-2.4c-0.6-0.6-1.3-1-2.4-1.2c-0.5-0.1-2-0.1-4.6-0.1h-4.9v7.5h4.6C342.4,456.1,344.3,456,345.1,455.8z
		 M366.1,460.1h15.6v-5h-15.6v-6.5h16.8v-5h-23.1v29.5h23.6v-5h-17.4V460.1z M395.3,443.9H389v29.3h21.9v-5h-15.6V443.9z
		 M778.4,28.6v15.2c0,6-4.7,10.7-10.7,10.7c-5.6,0-10.1-4.1-10.7-9.5c-1,0.8-1.9,1.7-2.8,2.7c-0.7,0.8-1.5,1.5-2.4,2.1
		c-23.7,28.7-43.7,63.3-61,105.5c0,0.2,0,0.4,0.1,0.6c0.1,1.2,0.1,2.4-0.1,3.7c-0.1,1.1-0.2,2.1-0.4,3c0,0.1,0,0.2-0.1,0.3l0.2,4.4
		c0.1,3.1-0.9,5.9-2.9,7.9c-1.5,1.6-3.5,2.7-5.7,3.1c-5.3,14.4-10.3,29.7-15.5,46.7c0,0.4,0,0.8,0,1.1l-0.1,1.5
		c-0.1,2.6-0.9,5.2-2.1,7.4v3.9c0,3.8-2,7.2-5,9.1c0,0.3,0,0.6,0,0.9c-0.2,5.8-4.9,10.4-10.8,10.4c-2.9,0-5.7-1.2-7.7-3.2
		c-2-2.1-3.1-4.8-3-7.7c0-1.6,0.1-3.2,0.1-5c-3-1.9-5-5.1-5.1-8.8l0-0.5c-0.3-0.5-0.6-1.1-0.8-1.6c-1.3,0.6-2.7,0.9-4.2,0.9
		c-6,0-10.7-4.7-10.7-10.7v-4.9c-0.2-0.3-0.5-0.6-0.7-0.9c-2.5-3.1-3.7-7-3.3-11c-3,1.4-5.9,2.8-7.9,3.9c-0.1,1.3-0.3,2.7-0.3,3.5
		c0.3,1.1,0.4,2.3,0.4,3.4c0,3.3-1,6.6-2.8,9.3v8.8c0,6-4.7,10.7-10.7,10.7c-6,0-10.7-4.7-10.7-10.7v-3.1c-1.2-0.8-2.4-1.7-3.3-2.8
		c-5.1,6.2-11.6,11.9-19.4,17.1c0,2,0.1,4.1,0.1,6.3c0,6-4.7,10.6-10.7,10.6c-0.7,0-1.3-0.1-2-0.2c-1.3,0.5-2.7,0.8-4.1,0.8
		c-3.3,0-6.2-1.4-8.1-3.6c-0.5,1-1.2,2-1.9,2.8v13.6c0,6-4.7,10.7-10.7,10.7s-10.7-4.7-10.7-10.7v-4.8c-1.4-1.6-2.3-3.7-2.5-5.9
		c-5.4-4.6-7.2-11.8-4.5-18.3c0,0,0-0.1,0-0.1l0.5-9.9c-1.2,0.5-2.4,1-3.3,1.5c0,0.5,0,1,0,1.6l0,1.9c1.1,2.3,1.5,4.7,1.3,7.2
		c0,0.4-0.1,0.8-0.2,1.2c0,0.5-0.1,1-0.2,1.5c0,0.2,0,0.5,0,0.7c-0.1,2.4-0.5,4.6-1.4,6.6v9c0,6-4.7,10.7-10.7,10.7
		c-4.6,0-8.5-2.8-10.1-6.9c-0.5-0.4-0.9-0.9-1.2-1.4c-0.1,0-0.3-0.1-0.4-0.2c-1.9,3-5.2,4.9-9.1,4.9c-1.2,0-2.3-0.2-3.4-0.5
		c-13,15.9-25.4,24-37,24c-2,0-4-0.3-5.9-0.7c6.3,3.5,12.7,6.9,19.4,10.4c3.3,1.1,6.1,3.2,8.1,5.9c3.1,3.3,4.8,8.1,4.5,12.7
		c-0.1,1.1-0.3,2.2-0.5,3.3v4.4c0,5.1-3.4,9.3-8.2,10.4v1.2c0,6-4.7,10.7-10.7,10.7c-6,0-10.7-4.7-10.7-10.7V343
		c-1.5-1.1-2.8-2.5-3.8-4c-3.4-1.8-6.6-3.5-9.8-5.2v74.8c0,2.2-1.8,4-4,4H310c0,2.9,0,5.8,0,8.7c-0.1,5.8-4.7,10.4-10.6,10.4
		c-0.4,0-0.8,0-1.2-0.1c-1.1,0.4-2.3,0.6-3.4,0.6c-5.5,0-9.9-4-10.5-9.2c-2.4-1.9-4-4.8-4-8l-0.1-2.5c-1.8-2.1-2.9-4.6-3.3-7.1
		c-0.6-4.1-0.5-7.4,0.2-11.1c0.1-0.4,0.2-0.8,0.3-1.3c0-0.2,0-0.4,0-0.6c-1-37.1-1.6-75.3-1.8-113.7c-16.2,27-31.8,54-46.5,80.6
		c-0.2,3.5-1,6.5-2.6,9.1c-0.5,0.9-1.1,1.7-1.7,2.5v4.1c0,4.3-2.5,7.9-6.1,9.6c0,0.3,0,0.7,0,1c0,5.9-4.7,10.5-10.6,10.5
		c-2.8,0-5.5-1.1-7.5-3.1c-2-2-3-4.6-3-7.4c0-0.9,0-1.9,0-2.9c-2.9-1.9-4.7-5-4.8-8.6c0-1.6,0-3.2,0-5c-2.9-3.3-5.3-7.6-6.9-12.5
		c-0.1-0.3-0.2-0.6-0.3-1c-5.3-7.9-9.7-16.1-14.6-26c-7.3-14.7-15.8-28.2-24.9-42.5l-1.2-1.9c-2.8-4.4-5.6-9-8.5-13.9
		c0.1,17.7,0.3,34.2,0.5,50.1c0,4-1.2,7.7-3.5,10.7l0,54.3c0,0.1,0.1,0.3,0.1,0.4c0.4,1.3,0.7,2.6,0.8,4c0.5,1.6,0.8,3.2,0.7,4.8
		c0,1.5-0.1,3-0.3,4.6c-0.1,0.8-0.2,1.6-0.4,2.4c-0.1,0.8-0.2,1.6-0.3,2.4l0,26.5c0,2.8-1.1,5.5-3,7.4c-2.5,2.5-6.4,3.6-9.8,2.9
		c-1.4,0.7-2.9,1-4.6,1c-5.9,0-10.6-4.6-10.6-10.5v-15.8c-1.9-0.9-3.4-2.3-4.5-4H7.2c-2.2,0-4-1.8-4-4V21.9c0-2.2,1.8-4,4-4h116
		c1.5,0,3,0.9,3.6,2.3l79.7,174l80.2-174c0.6-1.4,2.1-2.3,3.6-2.3h115.4c2.2,0,4,1.8,4,4v188.9c8.8-22,23.2-36.1,37.8-36.1
		c3.8,0,7.3,1,10.5,2.9c0.1,0,0.3,0.2,0.4,0.3c2.3,1.5,4,3,5.4,4.6c0.7-3,2.2-5.8,4.3-8.2c3.6-4.2,8.7-6.7,13.6-6.7
		c4.9,0,9.1,2.4,11.4,6.5l0.2,0.5c0.6,1.2,2.1,4.4,4.8,31.7c1.9-0.8,4-1.7,6.3-2.7c0.7-12.7,0.8-22.1,0.9-29.1
		c0.3-17.4,0.4-26.2,12.5-31.1c3.2-1.3,6-1.7,8.8-1.1c2.6-2.3,6-3.6,9.7-3.7c4.7-1.8,15.2-5.2,25-5.2c5.1,0,9.5,0.9,13.1,2.7
		c5.8,2.9,9.8,7.6,11.6,13.8c6.5-20.7,13.7-32.9,22-37.1c3-2,7.2-2.9,11.1-2.3c-0.5-3.3,0.1-6.6,1.8-9.7c3-5.4,9-8.9,15.3-8.9
		c5.7,0,10.8,2.9,14,7.8c5.3,8.4,11.1,16.8,17.1,24.9c21.1-46.9,46-84.9,76.1-116c1.2-1.7,2.8-3.2,4.6-4.4c4-2.6,8.7-4.1,13.2-4.1
		c5.1,0,9.7,1.8,13.4,5.3C781.2,11.4,782.6,20.8,778.4,28.6z M611.7,169.9c-0.3,1.2-0.6,2.4-0.9,3.5c0.4-0.2,0.9-0.4,1.3-0.6
		C612,172,611.8,171,611.7,169.9z M653,160c-4.6-5.5-9-11.1-13.2-16.7c1.7,8.3,2.8,17.1,3.6,25.4c0.7,0.6,1.3,1.3,1.8,2
		c1,1.3,1.8,2.8,2.3,4.3C649.3,169.8,651.1,164.8,653,160z M465.5,204.5c-3.6,5.2-9.7,8.7-15.8,8.7c-2.6,0-5-0.7-7.1-1.9
		c-5.3,11-11.8,35.3-7.9,52.9c0,0.2,0.1,0.4,0.1,0.5c0.6-0.6,1.4-1.4,2.3-2.4c3.4-3.8,6.9-8.8,9.7-12.8l0.4-0.6
		c0.3-1.7,1-3.3,1.8-4.7l0.4-0.7c1.9-6.9,8.4-10.3,13.8-10.7c-0.8-4.5,0.4-9.2,3.5-12.8C466.5,214.6,466,209.4,465.5,204.5z
		 M409.8,291.9c0.3,0.2,0.6,0.3,0.8,0.5c-0.3-0.3-0.6-0.6-0.8-0.9V291.9z"/>
	<g id="XMLID_8113_">
		<path id="XMLID_238_" class="st0" d="M116.7,434.5c-0.6,0-1.1-0.2-1.6-0.6c-0.5-0.4-0.8-1-0.8-1.7v-21.6c-0.1-0.1-0.3-0.1-0.4-0.2
			c-0.8-0.4-1.5-0.9-2.1-1.6c-0.3,0.2-0.8,0.3-1.2,0.3c-1.1,0-2.3-0.8-2.3-2.2c-0.1-1.6-0.1-3.2-0.1-4.7l0-0.6
			c-0.1-0.1-0.2-0.3-0.2-0.4c-1.1-2.2-1-4.1-0.7-6.1c0.1-0.9,0.5-1.8,1.1-2.6c0.2-1.3,0.7-2.4,1.5-3.3l0.1-180.8
			c-3.5-6.2-6.4-11.2-8.9-15.9c-0.4-0.7-0.7-1.5-0.8-2.4l-0.3-0.6c-1.6-2.8-1.7-5.8-0.2-8.5c1.7-2.9,5-4.8,8.3-4.8
			c3,0,5.6,1.5,7.2,4.3c0.5,0.9,1,1.8,1.5,2.6l0.4,0.7c0.6-0.1,1.2-0.2,1.8-0.2c4.4,0,8.9,3,8.9,8.6c0,1.9,0,3.9,0,5.8
			c0,1.6,0,3.2,0,4.8c2,3.6,4,7.2,6,10.8c9.7,17.7,19.8,36.1,30.8,53.5c2.2,3.4,4.3,6.8,6.5,10.2c6.9,10.7,14,21.7,19.8,33.4
			c0.8,1.7,1.7,3.4,2.5,5.1c3.3,6.8,6.8,13.8,10.8,20.2c1,0.7,1.8,1.7,2.4,2.8l1.3,2.3c3-4.7,5.7-9.8,8.3-14.7c1.9-3.7,4-7.4,6-11
			c5.9-10.1,12.2-20.6,19.2-32.2c13.4-22,27.3-44.1,40.8-65.6l0.1-0.2c0.4-0.6,0.8-1.1,1.3-1.6l0-0.9c0-2,0-4,0-6
			c0-5.7,4.5-8.6,8.9-8.6c3,0,5.7,1.3,7.3,3.5c2.5,0.6,4.6,2.3,5.5,4.5c0.9,2.1,0.6,4.3-0.7,6.4c-0.8,1.2-1.5,2.4-2.3,3.7l-0.6,1
			c0,0.1,0,0.3,0,0.4c0,0.3,0,0.7,0,1c0,0.6-0.1,1.2-0.3,1.7c0,0.3,0,0.5-0.1,0.7l0,0.2c-0.1,56.7,0.5,113.2,2,168.1
			c0.1,2-0.5,3.7-1.5,5.2c0.2,0.4,0.3,0.7,0.3,1.1c0.1,0.6,0.2,1.1,0.2,1.7c0,0.1,0,0.2,0,0.2l0,0.9c0,0.3,0,0.6-0.1,0.9l0,0.2
			c0,0.3-0.1,0.7-0.2,1c-0.1,0.4-0.3,0.9-0.5,1.5c0.1,5.4,0.1,10.9,0.1,16.3c0,1.3-1,2.3-2.3,2.3c-0.6,0-1.3-0.2-1.7-0.7
			c-0.4-0.4-0.6-1-0.6-1.6c0-1.9,0-3.8,0-5.8c0,0,0,0,0,0l0,6.2c0,0.7-0.2,1.2-0.6,1.7c-0.4,0.4-1,0.7-1.7,0.7c-1.3,0-2.3-1-2.3-2.3
			l0-5.3c-0.4,0.4-1,0.6-1.6,0.6c-1.3,0-2.3-1-2.4-2.2l-0.2-5.9c-0.1-0.1-0.3-0.2-0.4-0.4c-1.6-1.1-2.7-2.7-2.9-4.2
			c-0.4-3.2-0.4-5.6,0.1-8.4c0.1-0.5,0.3-1,0.5-1.5v-1.6c0,0,0,0,0,0c0,0,0,0,0-0.1c0-0.2,0-0.3-0.1-0.5c-1.2-46.6-1.9-94.5-2-142.7
			l-2.2,3.5c-21.2,34.8-41.6,69.8-60.6,104c0.1,2.9-0.4,5.3-1.5,7.2c-0.7,1.2-1.7,2.3-2.9,3.1v7.7c0,1.3-1,2.3-2.3,2.3
			c-0.6,0-1.1-0.2-1.6-0.6c-0.5-0.4-0.8-1-0.8-1.7v-1.5c-0.6,0-1.2-0.3-1.6-0.8c0.1,4.6,0.2,8.8,0.2,12.8c0,1.3-1,2.3-2.3,2.3
			c-0.6,0-1.3-0.2-1.7-0.7c-0.4-0.4-0.6-1-0.6-1.6c0-3.6,0-7.4-0.1-11.6c0,0.6-0.2,1.1-0.6,1.5c-0.4,0.4-1,0.7-1.7,0.7
			c-1.3,0-2.3-1-2.3-2.3c0-2.3,0-4.8,0-7.6c-0.3-0.4-0.6-0.8-0.8-1.2c-2.8-2.6-5-6.4-6.5-11c-0.2-0.6-0.3-1.2-0.4-1.7
			c-5.4-7.8-9.9-16.2-14.9-26.4c-7.5-15.1-16.1-28.8-25.3-43.3l-1.2-1.8c-8.7-13.7-16.6-27.5-23.9-40.6c0.1,31,0.4,56.9,0.6,81.4
			c0,3-1.2,5.5-3.5,7.1l0,59.4c0.2,0.4,0.3,0.8,0.5,1.2c0.3,1,0.5,2,0.6,3.2c0,0.1,0,0.3,0,0.4c0.4,0.9,0.6,1.9,0.6,2.8
			c0,1.2-0.1,2.4-0.2,3.7c-0.1,0.6-0.2,1.2-0.4,1.9c-0.1,1.1-0.2,2.1-0.4,3.1l0,27.3c0,0.6-0.2,1.2-0.6,1.6c-0.4,0.4-1,0.7-1.7,0.7
			c-1.3,0-2.3-1-2.3-2.3l0-11c-0.4-0.1-0.7-0.3-1-0.6c-0.4-0.4-0.6-1-0.6-1.6c0.1-2.2,0.1-4.5-0.1-7.1c-0.2,0-0.4,0.1-0.6,0.1v21
			C119,433.5,118,434.5,116.7,434.5z M374.1,402.6c-1.4,0-2.5-1.1-2.5-2.5v-10.2c-0.4,0.4-1,0.6-1.6,0.6c-1.4,0-2.5-1.1-2.5-2.5
			v-1.7c-1.5-0.3-3.1-1.3-4.2-2.7c-2.1-1.9-3.1-5-2.6-8.2c0-0.2,0.1-0.3,0.1-0.5l0-0.2l-1.4-73.3c-1.3-1.3-2.3-3.1-2.8-5
			c0,0,0,0.1-0.1,0.1c-0.1,0.5-0.2,1.1-0.4,1.6c-0.2,4.4-0.3,8.4-0.3,12.2c0,0.7-0.2,1.3-0.7,1.7c-0.5,0.5-1.1,0.7-1.8,0.7
			c-1.4,0-2.5-1.1-2.5-2.5c0-0.1,0-0.2,0-0.3c-0.8-0.1-1.4-0.6-1.7-1.3c-6.7,8.9-16.3,18.4-20.2,21.1c-5.2,3.6-9.5,5.3-13.1,5.3
			c-2.8,0-5.2-1.1-7.1-3.2c-8.7-9.9-4.8-40.6-1.7-65.3c0.4-2.8,0.7-5.4,1-8c-0.1-0.1-0.3-0.1-0.4-0.2c-2.1-1.1-3.9-2.1-3.7-5.9
			c0.4-7.6,13.2-12.8,29.5-19.3c7.8-3.1,16.5-6.7,24.6-10.8l-0.5-26.3c0-2.3,0.7-4.3,2.2-5.8c1.5-1.6,3.8-2.5,6.2-2.5
			c4.2,0,8.6,2.8,8.7,8.3l0.3,16.7c3.4-1.1,7-1.6,10.4-1.6c11.4,0,19.2,6.1,21.1,16.4c3.7,21.2-9.8,40.1-21.7,56.9l-1.1,1.5
			c1,0.6,2.1,1.3,3.2,2c1.3,0.8,2.7,1.7,4.1,2.5c14.8,8.9,30.2,17.4,47,26.2c2,0.5,3.7,1.8,4.7,3.5c1.8,1.7,2.9,4.4,2.7,7
			c-0.1,0.9-0.2,1.8-0.6,2.6v5.6c0,0.7-0.3,1.4-0.8,1.8c-0.5,0.4-1,0.6-1.7,0.6c-0.7,0-1.4-0.3-1.9-0.8c-1.1,0.7-2.3,1-3.6,1.1
			c0,0-0.1,0-0.1,0v8.8c0,1.4-1.1,2.5-2.5,2.5s-2.5-1.1-2.5-2.5v-9.1c-0.9-0.1-1.7-0.4-2.5-0.8c-1.6-0.8-2.7-2.2-3.3-4
			c-11.1-5.8-20.9-11.2-29.9-16.4c-5.1-2.9-10.2-5.9-15-8.8c-1.5-0.9-2.8-1.9-3.9-2.8c-0.1-0.1-0.2-0.2-0.3-0.3l1.2,66.1
			c0.4,0.9,0.9,2.1,0.8,3.4c0.2,1.1,0.2,2.2-0.1,3.2c-0.1,0.4-0.3,0.9-0.5,1.3c-0.1,0.2-0.1,0.5-0.2,0.7c-0.1,1.2-0.4,2.2-1,3.2
			c-0.1,0.1-0.1,0.2-0.2,0.3v17.3C376.6,401.5,375.5,402.6,374.1,402.6z M331.6,273.7c1.4,0,2.8,0.5,3.7,1.5c1,1.1,1.5,2.6,1.5,4.5
			c0,5.3-4.2,8.4-8.3,11.4l-1.1,0.8l-0.3,0.2c-7.7,5.4-7.7,5.4-7.7,9.7c0,0.6,0,1.2,0,2c0.3,11.3,1.7,13.2,2.1,13.5
			c0.1,0,0.1,0.1,0.3,0.1c3.6,0,14.3-14.1,19.4-20.9l1.3-1.7c0-0.9,0.3-1.8,0.6-2.7c0.4-3.2,2.6-5.5,5.7-5.9c0.7-0.2,1.3-0.3,2-0.3
			c2.6,0,4.6,1.2,5.8,3.2c0.2,0.4,0.4,0.9,0.6,1.4c0.2-0.4,0.3-0.7,0.5-1.1l1.5-2.7l-0.9-48.1c-4.5,2.2-9,4.2-13.4,6.2
			c-11.1,4.9-20.7,9.1-21.3,13.8c-0.4,3-1.8,15.5-2.2,20.1c0.7-0.5,1.4-1,1.7-1.3c2.8-1.9,5-3,6.5-3.5
			C330.3,273.8,331,273.7,331.6,273.7z M375.9,266.9c3-4.5,6.3-9.6,9.1-14.9c3.3-6.2,6.3-14.6,4.8-19.4c-1.1-3.6-4-4.4-6.1-4.4
			c-2.6,0-5.8,1.1-8.4,3L375.9,266.9z M427.5,291.1c-2.3,0-4.5-0.5-6.6-1.5c-10.1-4.5-11.5-17.5-11.5-30.8c0-47,22.2-75.8,38.2-75.8
			c2.3,0,4.4,0.6,6.4,1.7c7.2,4.7,7,9.7,6.2,12.2c-1.4,4.8-6.6,8.1-10.4,8.1c-1.1,0-2.1-0.3-3-0.8c-0.1,0-0.1-0.1-0.2-0.1
			c-0.3-0.3-0.7-0.8-1.3-1.5c-0.7-0.9-2.4-3-3-3.3c0,0-0.1,0-0.1,0c0,0-0.1,0-0.2,0c-0.3,0-1.3,0.2-3,2.3
			c-7.2,9-17.6,41.1-12.3,64.5c1.4,5.9,3.5,8.8,6.3,8.8c6.1,0,15.2-13,20.6-20.7c0.6-0.8,1.1-1.5,1.6-2.3c0-1.3,0.3-2.5,0.9-3.5
			l0.7-1.1c0.1-0.1,0.1-0.2,0.2-0.3l0.1-0.1c0-0.1,0.1-0.1,0.1-0.2c0.1-0.1,0.1-0.3,0.1-0.5c0.6-3.3,4-5.1,6.8-5.3l0.2,0
			c0.5,0,1,0.1,1.5,0.2c3.3,0.4,5.7,2.5,6.4,5.6c0.4,1.7,0.2,3.5-0.4,5.3v5.3c0,1-0.5,1.8-1.3,2.2v5.6c0,1.4-1.1,2.5-2.5,2.5
			c-1.4,0-2.5-1.1-2.5-2.5v-4.9C458,271.1,442.3,291.1,427.5,291.1z M520.5,278.9c-1.4,0-2.5-1.1-2.5-2.5v-9.2
			c-1.2,0-2.5-0.8-2.6-2.4c-0.1-1.2-0.1-2.5-0.2-3.9c-0.7-0.2-1.4-0.4-1.9-0.8c-3.3-2.3-4.4-6-3-9.4c0.1-0.3,0.3-0.6,0.4-0.9
			c0.1-0.1,0.1-0.3,0.2-0.4c0,0,0.6-12.4,1.2-24.4c-20.1,8.2-20.6,8.6-20.5,10.1c0,0.3,0,0.6,0,1c0,1.6,0,3.2,0.1,4.7
			c0,1.3,0.1,2.6,0.1,3.9c1,1.3,1.4,2.7,1.3,4.1c0,0.4-0.1,0.8-0.2,1.1c0,0.1,0,0.2,0,0.3c0,0.2,0,0.3,0,0.5l-0.1,0.3
			c0,0.2-0.1,0.4-0.1,0.6c0,0.1,0,0.1,0,0.2c0.1,0.4,0.1,0.8,0.1,1.2c0,1.9-0.5,3.5-1.4,4.7c0,0,0,0,0,0v11.1c0,1.4-1.1,2.5-2.5,2.5
			c-0.6,0-1.2-0.2-1.7-0.6c-0.5-0.5-0.8-1.1-0.8-1.9v-1.4c-1.2,0-2.5-0.8-2.6-2.4l-0.1-1.3c-0.3,0-0.6,0.1-0.9,0.1
			c-1,0-1.9-0.2-2.7-0.5c-2.6-1.1-4.1-3.3-4.3-6.4c-0.1-1.6,0.1-3.2,0.6-5c-0.1-2.3-0.2-5.1-0.3-8.4c0-2.1-0.1-4.4-0.2-6.9
			c-1.9-0.6-3.3-2-4-3.7c-1.3-3.2-0.1-6.9,2.9-8.8l0.6-0.4c-0.1-1.2-0.1-2.4-0.2-3.6c-0.7-9.8-1.6-18.9-2.8-27.1
			c-0.3-1.3-0.4-2.6-0.5-4c-0.5-3.4,0.4-6.7,2.7-9.4c2-2.3,4.9-3.8,7.4-3.8c1.9,0,3.4,0.8,4.2,2.3c1.8,3.7,4.5,32.9,5.2,40.2
			c2.4-0.9,5.5-2.2,9.1-3.8c3.5-1.5,7.5-3.3,12.3-5.2c0.9-15.5,1.1-26.5,1.2-34.6c0.3-16.7,0.3-20.7,7.4-23.5
			c1.3-0.5,2.2-0.8,3.1-0.8c1.9,0,3.2,1.1,4.7,2.9c0,0.1,0.1,0.1,0.1,0.2c0.3-1.4,1-2.7,2.1-3.7c1.2-1.8,3.2-2.9,5.6-2.9
			c0.3,0,0.7,0,1.1,0.1c1.9-0.8,13.4-5.3,23.7-5.3c3.8,0,7,0.6,9.5,1.9c3.9,1.9,6.4,5,7.4,9.2c2.5,10.2-4.3,24.4-11.6,34.2l-0.4,0.5
			c-0.3,0.4-0.9,1.2-1.3,1.9c0.1,0,0.3,0,0.5,0c0.5,0,1.1-0.1,1.6-0.1c6.6,0,11.3,3.1,12.9,8.6c0,0.2,0.1,0.3,0.1,0.5
			c0-0.1,0.1-0.2,0.1-0.3c0.3-1,0.9-1.9,1.6-2.7c0.6-0.7,1.5-1.2,2.5-1.6c1.2-7.8,2.8-15.9,4.9-24c4-16.7,12.3-45.2,23-49.8
			c1-0.8,2.9-1.4,4.6-1.4c1.3,0,2.6,0.3,3.6,0.9c8.2,3.8,13.2,31.3,15,54c1.3,0.5,2.4,1.3,3.2,2.3c1.8,2.4,1.9,5.8,0.2,8.2
			c-0.4,0.9-0.9,1.7-1.5,2.4c-0.4,0.3-0.7,0.7-1.2,1.1c0,3.5,0,6.6-0.2,9.1c0.9,1.3,1.4,2.8,1.4,4.2l0,1.1c0,1.1-0.3,2.2-0.8,3.2
			c-0.1,0.8-0.3,1.6-0.6,2.3c0.1,3.7,0.1,7.9,0.1,12.1c0,1.4-1.1,2.4-2.5,2.4c0,0,0,0,0,0c-0.7,0-1.4-0.3-1.8-0.7
			c-0.4-0.5-0.7-1.1-0.7-1.7c0-0.7,0-1.3,0-2c-0.3-0.1-0.7-0.2-0.9-0.4v5.8c0,1.4-1.1,2.5-2.5,2.5c-1.4,0-2.5-1.1-2.5-2.5v-8.8
			c-1-0.5-1.8-1.2-2.4-2.1c-1.6-1.8-2.1-4.5-1.3-7c-0.1-0.3-0.1-0.5-0.1-0.8l0-0.6c0.1-6.2,0.1-8.9,0-10.1
			c-4.4,1.4-22.7,10-23.9,11.7c0,0,0,0.1-0.1,0.1c-0.3,0.9-0.8,6-0.9,7.9c0,0.5-0.1,0.9-0.1,1.2c0.4,0.9,0.5,1.7,0.5,2.6
			c0,2.2-0.9,4.4-2.4,5.7c-0.1,0.2-0.3,0.4-0.4,0.6v11.7c0,1.4-1.1,2.5-2.5,2.5c-1.4,0-2.5-1.1-2.5-2.5v-9.1c-0.1,0-0.2,0-0.3,0
			c-0.1,0-0.2,0-0.3,0c-2.3,0-4.7-1.5-5.9-3.7c-1.6-2.1-1.9-5.2-0.7-7.8c0.1-1.9,0.3-4.1,0.6-6.7c-0.8-0.6-1.5-1.4-2-2.3
			c-1.5,10.1-10.3,23.5-29,35.3c-0.5,0.5-1,1-1.5,1.4c-0.1,0.1-0.1,0.2-0.2,0.3c0.1,3.2,0.2,6.6,0.2,10.1c0,1.4-1.1,2.5-2.5,2.5l0,0
			c-0.7,0-1.4-0.3-1.8-0.7c-0.4-0.5-0.7-1.1-0.7-1.7c0-0.9,0-1.7,0-2.6l0-0.2c-0.4-0.2-0.8-0.4-1-0.8v4.2c0,1.4-1.1,2.5-2.5,2.5
			c-1.4,0-2.5-1.1-2.5-2.5v-6.8c-1.9-0.7-4-2.3-4.5-4.8c-0.4-2,0-3.6,0.4-5c0.1-1,0.3-1.9,0.7-2.7c0.1-0.2,0.2-0.4,0.3-0.5
			c-0.1-0.7-0.2-1.3-0.2-1.7c-1.9-11.8-3.6-36.7-4.3-49.7c-0.2-3.8-0.5-7.2-0.7-10.1c-0.4-5.3-0.7-9.5-0.6-12.8
			c-0.3-0.6-0.6-1.2-0.8-1.8c-0.1,8.9-0.4,27.8-1,46.8c1.2,0.6,2.3,1.6,3,2.7c1,1.5,1.2,3.7,0.6,5.7c-0.1,2.7-1.4,4.9-3.5,5.9
			c-0.2,0.1-0.4,0.2-0.7,0.3c-0.5,13.5-1.1,23-1.6,28.3c0.6,1.1,0.9,2.3,0.8,3.4c0,0.5,0,0.9,0,1.4c0,1,0,1.9-0.3,3
			c-0.6,1.9-1.8,3.5-3.5,4.6v17.2C523,277.8,521.9,278.9,520.5,278.9z M549.9,208.7c0.1,4.6,1.3,13.4,1.7,16.2
			c0.5-0.3,1.5-1,3.3-2.6c6-5.1,10.4-12.4,9.4-15.3c-0.1-0.4-0.5-1.4-3.1-1.4c-1.5,0-3.6,0.4-6,1.2
			C552.5,207.6,550.6,208.3,549.9,208.7z M546.9,159.1c0.1,4.2,0.8,25.2,1.3,30.3c2.3-2.2,8-9.9,9.2-11.8c4.7-7.6,6.5-14,4.7-17.3
			c-1-1.8-3.1-2.7-6.3-2.7c-1.1,0-2.4,0.1-3.7,0.3C550.2,158.3,548.5,158.6,546.9,159.1z M613.3,137.8c-3,4.7-12.8,40-13.9,50.1
			c1.5-0.6,2-0.9,4.6-2.2l1.2-0.6c6.3-3.1,13.7-6.2,15.3-6.9c0,0,0-0.1,0-0.1c0-0.1,0.1-0.1,0.1-0.2
			C621.3,174.5,615.9,142.4,613.3,137.8z M648.4,251c-0.7,0-1.4-0.3-1.8-0.7c-0.4-0.5-0.7-1.1-0.7-1.7c0.1-4.2,0.1-8.6,0-13.8
			c0,0,0,0-0.1,0c-0.1,0.5-0.3,0.9-0.6,1.2c-0.5,0.5-1.1,0.7-1.8,0.7c-1.4,0-2.5-1-2.6-2.4l-0.1-2.9c-2.4-2.5-2.9-6.8-1.1-10.1
			c0.5-1,1.3-1.9,2.2-2.6c6.7-22.3,13.4-42,20.5-60.3c-12.5-14.7-23.8-30.1-33.6-45.7c-1.7-2.6-1.8-5.5-0.4-8
			c1.6-2.8,4.8-4.7,8.1-4.7c2.9,0,5.4,1.4,7,4c7.9,12.5,16.7,24.8,26.1,36.5c21.9-52.1,48.3-93.6,80.5-126.8c0.7-1.1,1.6-2,2.7-2.7
			c2.7-1.8,5.8-2.8,8.7-2.8c3,0,5.6,1,7.7,3c3.9,3.7,4.6,9.6,1.5,14.2c-0.2,0.2-0.3,0.5-0.5,0.7v17.6c0,1.4-1.1,2.5-2.5,2.5
			c-1.4,0-2.5-1.1-2.5-2.5v-6c-0.5,0.5-1.2,0.8-1.9,0.8c-0.7,0-1.4-0.3-1.8-0.7c-0.4-0.5-0.7-1.1-0.6-1.8c0-1,0.1-2.1,0-3.1
			c-0.1,0.1-1.4,0.7-1.9,1c-4.1,2.1-7.5,4.7-10.8,8.2c-0.6,0.6-1.2,1.1-1.9,1.5c-25,30-45.9,66.2-63.9,110.6
			c0.1,0.8,0.3,1.6,0.3,2.4c0.1,0.6,0,1.2-0.2,1.8c0,0.9-0.1,1.7-0.2,2.4c-0.1,0.3-0.2,0.6-0.3,0.8l0,0l0.3,6c0,0.7-0.2,1.3-0.6,1.8
			c-0.5,0.5-1.1,0.7-1.8,0.7c-1.2,0-2.5-0.8-2.6-2.4l0-0.6c-6.6,17.3-12.9,35.9-19.2,56.9c0.1,0.5,0.1,1.1,0.1,1.5l-0.1,1.5
			c-0.1,2-0.8,3.9-2.1,5.4v6.4c0,1.4-1.1,2.5-2.5,2.5c-0.6,0-1.2-0.2-1.7-0.6c-0.4-0.4-0.7-0.8-0.8-1.4c0,3.4,0,6.4-0.1,9.3
			C650.9,250,649.8,251,648.4,251z M651,236.8v-0.7c0,0,0,0,0,0C651,236.3,651,236.6,651,236.8z"/>
		<path id="XMLID_187_" d="M761.4,9.2c2.5,0,5,0.8,7,2.7c3.7,3.5,4.1,8.8,1.4,12.9c-0.2,0.3-0.4,0.6-0.7,0.9v18c0,1-0.8,1.5-1.5,1.5
			c-0.8,0-1.5-0.5-1.5-1.5V33.3c-0.2,0.1-0.5,0.2-0.8,0.2c-0.2,0-0.4,0-0.5-0.1c0,0.9,0,1.7,0,2.6c0,1-0.8,1.5-1.6,1.5
			c-0.8,0-1.5-0.5-1.4-1.5c0.1-1.6,0.1-3.2,0-4.8c-1.1,0.6-2.2,1.1-3.3,1.7c-4.2,2.2-7.8,4.9-11.1,8.4c-0.6,0.6-1.2,1.1-1.9,1.5
			c-27.7,33.3-48,71.3-64.2,111.3c0.2,0.9,0.3,1.8,0.4,2.6c0.1,0.5,0,1.1-0.2,1.6c0,0.8-0.1,1.5-0.2,2.3c-0.1,0.3-0.2,0.6-0.3,0.9
			c0.1,2.1,0.2,4.2,0.3,6.3c0,1-0.7,1.5-1.4,1.5c-0.8,0-1.5-0.5-1.6-1.5c0-1-0.1-2-0.1-3c-0.4,0.2-0.8,0.4-1.2,0.5
			c-7.4,19.3-13.9,39-19.8,58.7c0.1,0.5,0.2,1,0.1,1.6c0,0.5-0.1,1-0.1,1.5c-0.1,2-0.9,3.7-2.1,5v6.8c0,1-0.8,1.5-1.5,1.5
			c-0.8,0-1.5-0.5-1.5-1.5v-4c-0.1,0-0.2,0.1-0.2,0.1c-0.3,0.1-0.7,0.1-1.1,0.1c-0.2,0-0.5,0-0.7-0.1c0.1,4.5,0.1,9,0,13.5
			c0,1-0.8,1.5-1.5,1.5c-0.8,0-1.5-0.5-1.5-1.5c0.1-4.8,0.1-9.7,0-14.5c-0.1-0.1-0.3-0.1-0.4-0.1c-0.6-0.2-1.1-0.4-1.6-0.7
			c0,0.4,0,0.7,0,1.1c0,1-0.7,1.5-1.5,1.5c-0.8,0-1.5-0.5-1.6-1.5c0-1.1-0.1-2.2-0.1-3.3c-2.4-2.3-2.7-6.3-1.2-9.2
			c0.5-1,1.3-1.8,2.2-2.4c6.2-20.6,13-41.1,20.8-61.1c-12.4-14.5-23.7-29.8-33.9-46c-3.6-5.7,1.6-11.1,6.8-11.1c2.3,0,4.6,1,6.2,3.5
			c8.3,13.2,17.4,25.8,27.3,37.8c19.6-46.9,45-91.1,81-128.1c0.6-0.9,1.3-1.8,2.4-2.5C755.7,10.2,758.6,9.2,761.4,9.2 M617,119.5
			c1.1,0,2.2,0.2,3.1,0.7c7.8,3.6,12.8,31.5,14.5,53.8c1.3,0.4,2.6,1.2,3.3,2.2c1.6,2.1,1.7,5,0.1,7.2c-0.3,0.7-0.7,1.5-1.4,2.1
			c-0.5,0.5-1,0.9-1.5,1.3c0.1,3.9,0,7.2-0.2,9.9c0.9,1.1,1.5,2.5,1.5,3.9c0,0.4,0,0.7,0,1.1c0,1.1-0.3,2.1-0.8,2.9
			c-0.1,0.8-0.2,1.6-0.6,2.4c0.1,4.1,0.1,8.2,0.1,12.3c0,1-0.8,1.5-1.5,1.5c-0.8,0-1.5-0.5-1.5-1.5c0-1,0-2,0-3
			c-0.2,0-0.3,0.1-0.5,0.1c-0.8,0-1.5-0.5-1.5-1.4v-1.7c-0.3,0.1-0.6,0.1-0.9,0.2v9.3c0,1-0.8,1.5-1.5,1.5c-0.8,0-1.5-0.5-1.5-1.5
			v-9.5c-1.1-0.4-2-1.1-2.6-2c-1.5-1.7-1.8-4.2-1-6.3c-0.1-0.3-0.2-0.6-0.2-0.9c0-0.4,0.2-11.6-0.1-11.8c0,0-0.1,0-0.1,0
			c-1.8,0-24.5,10.3-25.5,12.4c-0.5,0.4-1,8-1.2,9.9c0.4,0.8,0.6,1.6,0.6,2.4c0,1.8-0.7,3.9-2.1,5c-0.2,0.3-0.4,0.6-0.7,0.9v12.1
			c0,1-0.8,1.5-1.5,1.5c-0.8,0-1.5-0.5-1.5-1.5v-10.3c-0.4,0.1-0.9,0.2-1.3,0.2c-0.1,0-0.1,0-0.2,0c-2.1,0-4.1-1.4-5.1-3.2
			c-1.6-1.9-1.6-4.7-0.6-6.9c0,0,0-0.1,0.1-0.1c0.1-2,0.3-4.4,0.7-7.4c-2.8-1.7-3.9-5.8-2.2-8.6c0.3-0.9,0.7-1.7,1.4-2.5
			c0.7-0.7,1.6-1.2,2.6-1.5c0-0.1,0-0.2,0.1-0.4c1.2-7.9,2.8-15.9,4.9-24.2c2.8-11.7,11.5-44.7,22.6-49.2
			C613.6,120.1,615.2,119.5,617,119.5 M598.3,189.5c3.1-1.3,2.8-1.1,7.3-3.4c7.1-3.6,15.6-7,15.6-7c0.1-0.1,0.2-0.3,0.3-0.5
			c1.3-0.6-5.2-42.1-8.2-42.1c0,0,0,0,0,0C610.2,137.7,598.3,182,598.3,189.5 M561.5,142.6c3.3,0,6.5,0.5,9.1,1.8
			c13.6,6.7,6.1,27.4-4.5,41.9c-1,1.4-3.1,4.2-2.2,4.2c0.1,0,0.2,0,0.4-0.1c0.1-0.1,0.4-0.1,0.9-0.1c0.2,0,0.3,0,0.5,0
			c0.5,0,1.1-0.1,1.6-0.1c19.6,0,17.5,28.1-16.5,49.5c-0.5,0.5-1.1,1-1.6,1.5c-0.1,0.2-0.3,0.4-0.5,0.6c0.1,3.5,0.2,6.9,0.2,10.4
			c0,1-0.8,1.5-1.5,1.5c-0.8,0-1.5-0.5-1.5-1.5c0-1.2,0-2.4-0.1-3.6c0,0,0,0,0,0c-0.8,0-1.5-0.5-1.5-1.5V245c-0.3,0.1-0.7,0.1-1,0.2
			c-0.2,0.1-0.3,0.1-0.5,0.1v7.6c0,1-0.8,1.5-1.5,1.5c-0.8,0-1.5-0.5-1.5-1.5v-7.5c-0.1,0-0.2,0-0.3-0.1c-1.9-0.6-3.8-2.1-4.2-4.2
			c-0.3-1.7,0-3.1,0.4-4.6c0.1-0.9,0.3-1.7,0.7-2.5c0.1-0.3,0.3-0.5,0.4-0.8c-0.1-0.8-0.2-1.6-0.3-2c-1.9-11.9-3.6-37.1-4.3-49.5
			c-0.6-10.8-1.5-18-1.2-23.1c-1.7-2.5-1.3-6.3,1-8.3c0.9-1.5,2.5-2.5,4.8-2.5c0.4,0,0.8,0.1,1.2,0.1c0,0,0,0,0.1,0
			C538,147.9,550.6,142.6,561.5,142.6 M547.6,191c1.5,0,9.7-11.4,10.6-12.8c6.4-10.2,9.2-21.5-2.5-21.5c-1.1,0-2.4,0.1-3.9,0.3
			c-2.2,0.3-4.1,0.7-6.1,1.4c0,1.4,0.9,31.4,1.5,32.3C547.4,190.9,547.5,191,547.6,191 M551.1,226.1c1,0,3.8-2.6,4.5-3.1
			c7.9-6.7,14.4-18.4,5.5-18.4c-1.6,0-3.7,0.4-6.3,1.2c-0.9,0.3-5.4,1.7-5.9,2.4c0,5.2,1.7,17.2,1.9,17.8
			C550.9,226.1,551,226.1,551.1,226.1 M524.2,151.2c1.5,0,2.5,0.9,4,2.6c0,7.1-0.4,29.3-1.1,50.7c1.3,0.5,2.5,1.5,3.2,2.6
			c0.9,1.4,1,3.3,0.5,5c0,2.1-1,4.2-2.9,5.1c-0.4,0.2-0.8,0.3-1.2,0.5c-0.5,12.5-1,23.4-1.7,29.2c0.6,0.9,0.9,2,0.9,3.1
			c-0.1,1.5,0.1,2.8-0.3,4.2c-0.6,1.9-1.8,3.4-3.5,4.3v17.8c0,1-0.8,1.5-1.5,1.5c-0.8,0-1.5-0.5-1.5-1.5v-10.6
			c-0.3,0.2-0.6,0.3-1,0.3c-0.8,0-1.5-0.5-1.6-1.4c-0.1-1.6-0.2-3.1-0.2-4.7c-0.9-0.1-1.7-0.3-2.3-0.8c-2.8-1.9-3.9-5.1-2.6-8.2
			c0.2-0.5,0.4-0.9,0.7-1.4c0.3-6,0.4-8,1.3-26.2c-25.4,10.4-22.4,9.2-22.6,12.6c0,3.1,0.2,6.2,0.2,9c0.9,1,1.4,2.3,1.3,3.7
			c-0.1,0.6-0.2,1.1-0.3,1.6l0.1,0c0,0.1-0.1,0.2-0.1,0.4c-0.1,0.3-0.2,0.6-0.2,1c0.1,0.4,0.1,0.8,0.1,1.2c0,1.5-0.3,2.9-1.2,4.2
			c-0.1,0.1-0.1,0.2-0.2,0.2v11.5c0,1-0.8,1.5-1.5,1.5c-0.8,0-1.5-0.5-1.5-1.5V266c-0.3,0.2-0.6,0.3-1,0.3c-0.8,0-1.5-0.5-1.6-1.4
			c-0.1-0.8-0.1-1.6-0.2-2.4c-0.6,0.2-1.2,0.2-1.8,0.2c-0.8,0-1.6-0.1-2.3-0.4c-2.3-1-3.5-3.1-3.7-5.5c-0.1-1.7,0.2-3.2,0.6-4.8
			c-0.2-3.8-0.2-9.1-0.4-16.2c-1.8-0.4-3.3-1.5-4.1-3.4c-1.2-2.8-0.1-5.9,2.5-7.5c0.4-0.2,0.7-0.5,1.1-0.7c-0.1-1.4-0.2-2.8-0.3-4.2
			c-0.7-9.9-1.6-18.9-2.8-27.2c-0.3-1.3-0.4-2.6-0.5-3.9c-1.1-7.2,4.9-12.1,9.1-12.1c1.4,0,2.6,0.6,3.3,1.8
			c1.9,3.9,5.2,41.1,5.2,41.1c4.9-1.7,12.3-5.3,23.2-9.7c3-48.6-1.6-54,8-57.9C522.6,151.5,523.5,151.2,524.2,151.2 M108.1,177.4
			c2.4,0,4.8,1.1,6.3,3.8c0.8,1.3,1.5,2.6,2.3,4c0.7-0.2,1.5-0.3,2.3-0.3c4,0,7.9,2.5,7.9,7.6c0,3.6,0,7.2,0,10.8
			c12,21.7,23.7,43.6,36.9,64.6c9,14.4,18.7,28.3,26.3,43.5c4.3,8.7,8.4,17.4,13.4,25.6c0.9,0.6,1.6,1.5,2.3,2.6
			c0.7,1.3,1.4,2.5,2.1,3.8c5.6-8.6,10.1-18.4,15.2-27.2c6.3-10.8,12.7-21.5,19.2-32.2c13.4-22,27.2-43.9,40.9-65.8
			c0.4-0.7,1-1.3,1.5-1.8c0-2.5,0-4.9,0-7.4c0-5.1,4-7.6,7.9-7.6c2.6,0,5.3,1.1,6.7,3.4c4,0.8,7.4,5,4.6,9.5c-1,1.6-2,3.3-3,4.9
			c0,0.6,0,1.1,0,1.7c0,0.6-0.1,1.1-0.3,1.6c0,0.3-0.1,0.7-0.1,1c-0.1,56.1,0.5,112.1,2,168.2c0.1,2.1-0.6,3.8-1.7,5
			c0.2,0.4,0.4,0.9,0.5,1.4c0.1,0.6,0.2,1.2,0.2,1.8c0,0,0,0,0,0c0,0.3,0,0.6,0,0.9c0,0.3,0,0.6-0.1,0.8c0,0,0,0.1,0,0.1
			c0,0.3-0.1,0.6-0.2,0.9c-0.1,0.5-0.3,1-0.5,1.5c0.1,5.5,0.1,11,0.1,16.5c0,0.8-0.7,1.3-1.3,1.3c-0.7,0-1.3-0.4-1.3-1.3
			c0-2.2,0-4.3,0-6.5c-0.6-0.1-1.2-0.5-1.2-1.2c0-1.6,0-3.1,0-4.7c-0.3,0.2-0.6,0.4-0.9,0.5c0,4.1,0,8.3,0,12.4
			c0,0.8-0.7,1.3-1.3,1.3c-0.7,0-1.3-0.4-1.3-1.3c0-3.9,0-7.8,0-11.7c0,0,0,0,0,0c-0.5,0-1-0.1-1.4-0.2c0,1.6,0.1,3.3,0.1,4.9
			c0,0.8-0.6,1.3-1.3,1.3c-0.7,0-1.3-0.4-1.4-1.3l-0.2-6.3c-0.3-0.2-0.5-0.4-0.7-0.7c-1.3-0.9-2.3-2.2-2.5-3.6
			c-0.4-2.9-0.4-5.2,0.1-8.1c0.1-0.5,0.3-1,0.5-1.4v-1.8c0-0.2-0.1-0.4-0.1-0.6c-1.2-48.7-1.9-97.4-2-146.1c-1.4,2.2-2.7,4.3-4,6.5
			c-21,34.4-41.3,69.1-60.8,104.3c0.1,2.4-0.1,4.8-1.3,6.9c-0.8,1.3-1.8,2.3-3,3v8.2c0,0.8-0.7,1.3-1.3,1.3c-0.7,0-1.3-0.4-1.3-1.3
			v-2.7c-0.2,0.2-0.5,0.3-0.8,0.3c-0.7,0-1.3-0.4-1.4-1.3c-0.1-1.1-0.1-2.2-0.1-3.3c-0.2,0-0.4,0-0.5,0c-0.3,0-0.6,0-0.9,0
			c0.2,5.8,0.3,11.7,0.3,17.5c0,0.8-0.7,1.3-1.3,1.3c-0.7,0-1.3-0.4-1.3-1.3c0-5.9-0.1-11.9-0.3-17.8c-0.6,0-1.2-0.1-1.8-0.3
			c0,2.1,0,4.3,0,6.4c0,0.8-0.6,1.3-1.3,1.3c-0.7,0-1.3-0.4-1.3-1.3c-0.1-2.7,0-5.3,0-8c-0.4-0.4-0.7-0.9-0.9-1.5
			c-3.1-2.8-5.1-6.7-6.4-10.7c-0.2-0.6-0.3-1.2-0.4-1.8c-5.8-8.3-10.4-17.2-15-26.4c-7.8-15.8-17.1-30.3-26.5-45.2
			c-9.1-14.4-17.5-29.1-25.7-44c0.1,28.4,0.3,56.8,0.7,85.3c0,3.2-1.5,5.3-3.5,6.5c0,20.1,0,40.1,0,60.2c0.2,0.4,0.4,0.8,0.5,1.2
			c0.3,1,0.5,2,0.6,3c0,0.2,0,0.4,0.1,0.6c0.4,0.8,0.6,1.7,0.6,2.6c0,1.2-0.1,2.4-0.2,3.6c-0.1,0.7-0.2,1.3-0.4,1.8
			c-0.1,1.1-0.2,2.1-0.4,3.1c0,9.1,0,18.3,0,27.4c0,0.8-0.7,1.3-1.3,1.3c-0.7,0-1.3-0.4-1.3-1.3c0-4,0-8,0-12c-0.1,0-0.2,0-0.3,0
			c-0.7,0-1.3-0.4-1.3-1.3c0.1-2.8,0-5.6-0.1-8.5c-0.8,0.3-1.6,0.5-2.5,0.6v21.9c0,0.8-0.7,1.3-1.3,1.3c-0.7,0-1.3-0.4-1.3-1.3
			v-22.3c-0.3-0.1-0.7-0.2-1-0.4c-1-0.5-1.9-1.3-2.5-2.2c-0.1,0.6-0.7,0.9-1.2,0.9c-0.7,0-1.3-0.4-1.3-1.3c-0.1-1.8-0.1-3.7-0.1-5.5
			c-0.1-0.2-0.3-0.3-0.4-0.5c-0.9-1.8-0.9-3.5-0.6-5.5c0.1-0.9,0.5-1.7,1.1-2.4c0.2-1.4,0.8-2.5,1.6-3.3c0-60.5,0-120.9,0.1-181.4
			c-3.1-5.3-6.1-10.7-9-16.1c-0.4-0.8-0.6-1.5-0.7-2.2c-0.1-0.3-0.3-0.5-0.4-0.8C97.2,183.1,102.7,177.4,108.1,177.4 M447.6,183.9
			c2.1,0,4.1,0.5,5.9,1.6c12.5,8.2,2.8,18.5-3.7,18.5c-0.9,0-1.7-0.2-2.5-0.6c-0.8-0.8-3.9-5.1-4.9-5.1c0,0,0,0,0,0
			c-0.1,0-0.2,0-0.3,0c-7.2,0-22.5,40.4-16.3,68c1.6,6.9,4.2,9.6,7.3,9.6c7.3,0,17.3-15.4,23.2-23.7c0-1.1,0.2-2.3,0.8-3.2
			c0.2-0.4,0.4-0.7,0.7-1.1c0.1-0.1,0.1-0.2,0.2-0.3c0.1-0.1,0.1-0.2,0.2-0.3c0,0,0-0.1,0.1-0.1c0.1-0.3,0.1-0.5,0.2-0.8
			c0.5-2.7,3.3-4.3,5.8-4.4c0.1,0,0.1,0,0.2,0c0.5,0,0.9,0.1,1.4,0.2c2.6,0.3,5,2,5.6,4.8c0.4,1.6,0.2,3.3-0.5,4.9v5.5
			c0,0.9-0.6,1.3-1.3,1.4v6.3c0,1-0.8,1.5-1.5,1.5c-0.8,0-1.5-0.5-1.5-1.5v-8c-0.1,0.1-0.1,0.1-0.2,0.2
			c-8.5,12.9-24.5,32.8-38.7,32.8c-2.1,0-4.2-0.4-6.2-1.4c-10.2-4.6-11-18.8-11-29.9C410.4,213,432,183.9,447.6,183.9 M365.9,188.8
			c3.8,0,7.6,2.4,7.7,7.3c0.1,6,0.2,12,0.3,18.1c3.7-1.3,7.6-2,11.4-2c9.5,0,18.1,4.5,20.1,15.6c3.8,21.8-11,41.2-23.2,58.6
			c2.5,1.4,5.1,3.2,8.3,5.1c15.4,9.2,31.2,17.9,47.1,26.3c1.8,0.4,3.4,1.5,4.3,3.2c1.7,1.5,2.6,4,2.5,6.3c-0.1,0.9-0.3,1.7-0.6,2.5
			v5.8c0,1-0.7,1.5-1.5,1.5c-0.7,0-1.5-0.5-1.5-1.4c-1,1-2.4,1.6-4.1,1.7c-0.1,0-0.1,0-0.2,0c-0.3,0-0.6,0-0.9-0.1v9.9
			c0,1-0.8,1.5-1.5,1.5c-0.8,0-1.5-0.5-1.5-1.5v-10c-1,0-2.1-0.3-3.1-0.8c-1.6-0.9-2.5-2.2-2.9-3.8c-10.2-5.3-20.3-10.8-30.3-16.5
			c-5-2.9-10-5.8-15-8.8c-2.4-1.4-4.2-3.1-5.8-4.2c0.4,22.8,0.9,45.5,1.3,68.3c0.5,1,0.9,2.2,0.8,3.2c0.2,0.9,0.2,1.9-0.1,2.8
			c-0.1,0.4-0.3,0.9-0.5,1.3c-0.1,0.3-0.1,0.6-0.2,0.8c-0.1,1-0.3,2-0.8,2.9c-0.1,0.2-0.2,0.3-0.3,0.4v17.6c0,1-0.8,1.5-1.5,1.5
			c-0.8,0-1.5-0.5-1.5-1.5v-15.4c-0.4,0.1-0.7,0.2-1.1,0.2v3.1c0,1-0.8,1.5-1.5,1.5c-0.8,0-1.5-0.5-1.5-1.5v-2.6
			c-1.6,0-3.4-1.1-4.5-2.5c-2-1.7-2.8-4.5-2.4-7.4c0-0.2,0.1-0.4,0.1-0.6c0-0.1,0-0.1,0-0.2c-0.5-24.6-0.9-49.1-1.4-73.7
			c-2.8-2.7-4.1-7.2-1.9-11.2c0.5-1,1.1-1.9,1.6-2.9c-0.3-16.7-0.6-33.3-0.9-50c-16.8,8.6-35.7,14-36.6,21.5
			c-0.1,0.5-2.6,22.2-2.2,22.2c0,0,0,0,0,0c0.3-0.1,2.8-2,3.4-2.4c2.7-1.8,4.7-2.9,6.2-3.3c0.6-0.2,1.1-0.3,1.7-0.3
			c2.4,0,4.3,1.7,4.1,5c0,5.3-4.7,8.2-9,11.4c-9.5,6.6-8.4,5.7-8.4,12.7c0.1,2.6,0.4,12.7,2.5,14.3c0.3,0.2,0.6,0.3,0.9,0.3
			c4.5,0,16-15.8,21.7-23.2c0-1,0.2-1.9,0.6-2.8c0.3-2.5,1.9-4.8,4.9-5.2c0.6-0.2,1.1-0.3,1.8-0.3c5.4,0,7,5.8,4.9,9.3
			c-0.1,0.6-0.2,1.2-0.4,1.7c-0.2,4.1-0.3,8.2-0.3,12.4c0,1-0.7,1.5-1.5,1.5c-0.8,0-1.5-0.5-1.5-1.5c0-0.5,0-0.9,0-1.4
			c-0.2,0-0.3,0.1-0.5,0.1c-0.8,0-1.5-0.5-1.5-1.4v-1.6c-6.8,9.6-17.6,20.2-21.5,23c-5.2,3.5-9.3,5.1-12.6,5.1
			c-18.1,0-10.1-48.1-6.8-76.1c-2.6-1.5-4.3-1.9-4.1-5.5c0.6-10.6,29.9-17.1,54-29.6l-0.5-26.9C358.4,191.2,362.1,188.8,365.9,188.8
			 M374.9,270.1c3.9-5.8,7.7-11.6,10.9-17.6c2.6-4.9,6.7-14.3,4.8-20.2c-1.2-3.6-3.9-5.1-7.1-5.1c-3.2,0-6.7,1.4-9.4,3.5
			C374.4,243.8,374.7,257,374.9,270.1 M761.4,7.2C761.4,7.2,761.4,7.2,761.4,7.2c-3.1,0-6.3,1-9.2,2.9c-1.2,0.8-2.2,1.8-2.9,2.9
			c-31.9,33-58.1,74-80,125.5c-9-11.2-17.4-23-25-35.1c-1.8-2.9-4.6-4.5-7.9-4.5c-3.6,0-7.3,2.1-9,5.2c-1.5,2.8-1.4,6.1,0.4,9
			c9.7,15.5,21,30.7,33.3,45.3c-7,18.1-13.6,37.6-20.2,59.5c-0.9,0.7-1.7,1.6-2.2,2.7c-1.9,3.6-1.4,8.1,1,11l0,1.5l0,1.1
			c0.1,1.9,1.6,3.4,3.6,3.4c0.5,0,1.1-0.1,1.5-0.3c0.1,4.1,0.1,7.7,0,11.1c0,0.9,0.3,1.8,0.9,2.5c0.6,0.7,1.6,1,2.5,1
			c2,0,3.5-1.5,3.5-3.4c0.1-2.1,0.1-4.3,0.1-6.6c0.4,0.2,0.9,0.3,1.4,0.3c2,0,3.5-1.5,3.5-3.5v-6c1.3-1.6,2-3.6,2.1-5.7l0.1-1.5
			c0-0.5,0-1-0.1-1.5c6-19.8,11.9-37.6,18.1-54.1c0.6,0.7,1.6,1.1,2.6,1.1c1,0,1.9-0.4,2.5-1c0.6-0.7,0.9-1.5,0.9-2.5l-0.3-5.8
			c0.1-0.2,0.2-0.5,0.3-0.8c0.2-0.9,0.2-1.8,0.3-2.4c0.2-0.7,0.2-1.4,0.2-2.1c-0.1-0.7-0.2-1.5-0.3-2.2
			c17.9-44.1,38.7-80.1,63.5-110c0.8-0.5,1.4-1,2-1.6c3.2-3.4,6.5-6,10.5-8c0.1-0.1,0.3-0.1,0.4-0.2c0,0.5,0,1,0,1.5
			c0,1,0.3,1.8,0.9,2.5c0.6,0.7,1.6,1,2.5,1c0.3,0,0.6,0,0.9-0.1v4.4c0,2,1.5,3.5,3.5,3.5c2,0,3.5-1.5,3.5-3.5V26.5
			c0.1-0.1,0.2-0.3,0.3-0.5c3.3-5,2.6-11.4-1.7-15.5C767.6,8.4,764.7,7.2,761.4,7.2L761.4,7.2z M617,117.5c-2,0-3.9,0.6-5.1,1.5
			c-10.4,4.6-18.5,29.9-23.5,50.4c-2,8-3.6,15.9-4.8,23.5c-0.9,0.4-1.7,1-2.3,1.6c-0.3,0.3-0.6,0.7-0.9,1.1
			c-2.2-4.8-6.8-7.5-13.2-7.5c0,0-0.1,0-0.1,0c0.1-0.1,0.1-0.2,0.2-0.3l0.4-0.5c7.3-10,14.3-24.5,11.7-35c-1.1-4.5-3.8-7.8-7.9-9.8
			c-2.7-1.3-6-2-10-2l0,2l0-2c-10.1,0-21.4,4.3-23.8,5.3c-0.3,0-0.6-0.1-0.9-0.1c-2.7,0-4.9,1.1-6.3,3.2c-0.7,0.7-1.3,1.5-1.7,2.4
			c-1.2-1.2-2.6-2.1-4.5-2.1c0,0,0,0,0,0c-1,0-2.1,0.3-3.5,0.8c-7.7,3.1-7.7,7.6-8,24.5c-0.1,7.9-0.3,18.7-1.2,33.9
			c-4.5,1.8-8.3,3.5-11.7,5c-3.1,1.3-5.6,2.5-7.8,3.3c-0.9-9.7-3.4-35.5-5.1-39.1c0,0,0-0.1-0.1-0.1c-1-1.8-2.8-2.8-5-2.8
			c-2.8,0-5.9,1.6-8.1,4.2c-2.4,2.8-3.5,6.4-2.9,10.2c0.1,1.4,0.3,2.7,0.5,4c1.2,8.2,2.1,17.2,2.8,27c0.1,1.1,0.1,2.1,0.2,3
			l-0.1,0.1c-3.4,2.2-4.8,6.4-3.2,10c0.8,1.8,2.2,3.2,4,4c0.1,2.3,0.1,4.4,0.1,6.3c0.1,3.2,0.1,6,0.2,8.3c-0.5,1.9-0.7,3.5-0.6,5.2
			c0.2,3.4,2,6,4.9,7.2c0.9,0.4,2,0.6,3.1,0.6l0,0.3c0.1,1.5,1.2,2.8,2.6,3.2v0.6c0,2,1.5,3.5,3.5,3.5c2,0,3.5-1.5,3.5-3.5v-10.8
			c0.9-1.4,1.4-3,1.4-5c0-0.4,0-0.8-0.1-1.2c0-0.2,0.1-0.4,0.1-0.5c0,0,0-0.1,0-0.1c0,0,0-0.1,0-0.1c0.1-0.3,0.1-0.5,0.1-0.8
			c0,0,0-0.1,0-0.1c0.1-0.4,0.1-0.8,0.2-1.2c0.2-1.6-0.3-3.1-1.3-4.5c0-1.2,0-2.4-0.1-3.6c0-1.5-0.1-3.1-0.1-4.7c0-0.4,0-0.8,0-1.1
			c0-0.1,0-0.2,0-0.3c1-1,7.3-3.6,18.4-8.2c-0.5,11.1-0.7,15.2-0.9,18.8l-0.2,3.8c0,0.1-0.1,0.1-0.1,0.2c-0.1,0.3-0.3,0.6-0.4,0.9
			c-1.6,3.9-0.3,8.1,3.3,10.6c0.4,0.3,1,0.6,1.5,0.8c0,1.2,0.1,2.2,0.1,3.2c0.1,1.5,1.2,2.8,2.6,3.2v8.4c0,2,1.5,3.5,3.5,3.5
			c2,0,3.5-1.5,3.5-3.5v-16.7c1.7-1.2,2.8-2.8,3.4-4.8c0.4-1.2,0.4-2.3,0.4-3.3c0-0.5,0-0.9,0-1.3c0.1-1.2-0.2-2.5-0.8-3.7
			c0.5-5.3,1.1-14.5,1.6-27.4c0,0,0.1,0,0.1,0c1.8-0.8,3.2-2.5,3.8-4.5c0.6,6.6,1.3,12.7,2,17c0,0.2,0.1,0.7,0.2,1.3
			c0,0.1-0.1,0.2-0.1,0.3c-0.4,0.9-0.7,1.9-0.8,3c-0.4,1.4-0.8,3.2-0.4,5.3c0.5,2.6,2.5,4.4,4.5,5.3v6.1c0,2,1.5,3.5,3.5,3.5
			c1.5,0,2.7-0.8,3.2-2c0.1,0.1,0.2,0.3,0.3,0.4c0.6,0.6,1.6,1,2.5,1c2,0,3.5-1.5,3.5-3.4c0-3.3-0.1-6.6-0.1-9.7
			c0.5-0.4,0.9-0.8,1.4-1.3c17.6-11.1,26.5-23.7,28.9-33.7c0.1,0.1,0.3,0.3,0.4,0.4c-0.3,2.3-0.4,4.3-0.5,6c-1.3,3-1,6.3,0.8,8.6
			c1.4,2.4,3.8,3.9,6.3,4.1v8.1c0,2,1.5,3.5,3.5,3.5c2,0,3.5-1.5,3.5-3.5v-11.4c0.1-0.1,0.1-0.2,0.2-0.3c1.9-1.8,2.6-4.4,2.6-6.4
			c0-0.9-0.2-1.8-0.5-2.7c0-0.3,0.1-0.6,0.1-1c0.2-1.8,0.6-6.4,0.9-7.6c2-1.8,16.5-8.7,22.1-10.9c0,1.5,0,4.2,0,8.6
			c0,0.3,0,0.5,0,0.6c0,0,0,0.1,0,0.1c0,0.3,0.1,0.5,0.1,0.7c-0.8,2.7-0.2,5.6,1.5,7.7c0.6,0.8,1.3,1.5,2.2,2v8.2
			c0,2,1.5,3.5,3.5,3.5c2,0,3.5-1.5,3.5-3.5v-0.9c0.6,0.6,1.5,0.9,2.4,0.9c2,0,3.5-1.5,3.5-3.4c0-4.1,0-8.3-0.1-11.9
			c0.3-0.7,0.5-1.4,0.5-2.2c0.6-1.1,0.8-2.3,0.8-3.5l0-0.3l0-0.8c0-1.5-0.5-3.1-1.4-4.5c0.2-2.3,0.2-5.1,0.2-8.3
			c0.3-0.3,0.6-0.6,0.9-0.8c0.8-0.7,1.3-1.6,1.7-2.6c1.9-2.8,1.8-6.6-0.3-9.3c-0.8-1-1.8-1.8-3-2.4c-0.9-10.6-4.7-49-15.5-54.2
			C619.8,117.8,618.4,117.5,617,117.5L617,117.5z M600.6,186.3c1.6-10.6,9.1-37.7,12.6-46c2.6,7.9,6.7,32.6,6.5,37.2
			c-2.3,1-9.1,3.8-14.9,6.8l-1.2,0.6C602.1,185.6,601.3,186,600.6,186.3L600.6,186.3z M547.9,159.9c1.3-0.4,2.8-0.6,4.3-0.9
			c1.3-0.2,2.5-0.3,3.6-0.3c2.8,0,4.6,0.7,5.4,2.2c1.6,2.9-0.2,9.1-4.7,16.2c-1.1,1.7-5,7-7.5,10C548.5,180.2,548,164.8,547.9,159.9
			L547.9,159.9z M529.2,203.3c0.3-9.4,0.5-18.7,0.7-26.8c0.1,1.7,0.2,3.5,0.3,5.3c0.3,6.1,0.9,15,1.6,23.8
			C531.1,204.7,530.2,203.9,529.2,203.3L529.2,203.3z M551,209.3c0.9-0.4,2.4-1,4.5-1.6c2.4-0.8,4.3-1.1,5.7-1.1c0,0,0,0,0,0
			c0.9,0,1.9,0.1,2.2,0.8c0.8,2.2-3,9-9,14.1l-0.1,0.1c-0.8,0.7-1.4,1.2-1.9,1.6C551.9,219.6,551.1,213.2,551,209.3L551,209.3z
			 M108.1,175.4c-3.7,0-7.4,2.1-9.2,5.3c-1.7,2.9-1.6,6.4,0.2,9.5l0.2,0.4l0,0.1c0.2,0.9,0.5,1.7,0.9,2.5c2.5,4.6,5.3,9.6,8.8,15.7
			l0,90.2l0,90c-0.7,0.9-1.2,2-1.4,3.2c-0.7,0.9-1.1,1.9-1.2,2.9c-0.3,2-0.4,4.2,0.8,6.7c0,0.1,0.1,0.2,0.1,0.2l0,0.3
			c0,1.5,0,3.1,0.1,4.7c0.1,1.8,1.5,3.2,3.3,3.2c0.3,0,0.7,0,1-0.1c0.5,0.5,1.1,0.9,1.7,1.2v20.9c0,1.9,1.4,3.3,3.3,3.3
			c1.9,0,3.3-1.4,3.3-3.3V421c0.1,0,0.1,0.1,0.2,0.1l0,10.4c0,1.9,1.4,3.3,3.3,3.3c0.9,0,1.8-0.4,2.4-1c0.6-0.6,0.9-1.4,0.9-2.3
			l0-27.2c0.2-0.9,0.3-1.9,0.4-3c0.2-0.7,0.3-1.3,0.4-2c0.2-1.3,0.2-2.5,0.2-3.8c0-1-0.2-2.1-0.6-3.1c0-0.1,0-0.2,0-0.3
			c-0.1-1.2-0.4-2.3-0.7-3.3c-0.1-0.4-0.3-0.7-0.4-1.1l0-58.7c2.3-1.8,3.6-4.5,3.5-7.6c-0.3-23.5-0.5-48.2-0.6-77.5
			c6.8,12.1,14.1,24.8,22,37.3l1.2,1.8c9.2,14.5,17.8,28.1,25.3,43.2c5,10.1,9.4,18.5,14.8,26.3c0.1,0.6,0.2,1.1,0.4,1.7
			c1.5,4.7,3.8,8.6,6.7,11.3c0.2,0.3,0.4,0.7,0.6,1c0,2.8,0,5.1,0,7.3c0,1.8,1.5,3.2,3.3,3.2c0.5,0,0.9-0.1,1.4-0.3
			c0.1,3.1,0.1,5.9,0.1,8.7c0,0.9,0.3,1.7,0.9,2.3c0.6,0.6,1.5,1,2.4,1c1.9,0,3.3-1.4,3.3-3.3c0-2.8,0-5.7-0.1-8.8
			c0.6,0.9,1.6,1.5,2.8,1.5c1.9,0,3.3-1.4,3.3-3.3v-7.2c1.1-0.8,2-1.9,2.7-3.1c1.2-2,1.7-4.5,1.6-7.4c19-34.2,39.3-69.1,60.5-103.8
			c0.1-0.2,0.2-0.4,0.4-0.6c0.1,47,0.8,93.8,1.9,139.2c0,0.3,0,0.5,0.1,0.6c0,0,0,0,0,0v1.2c-0.2,0.5-0.4,1-0.5,1.5
			c-0.6,2.9-0.6,5.4-0.1,8.7c0.2,1.8,1.4,3.6,3.2,4.9c0,0,0,0,0.1,0.1l0.2,5.5c0.1,1.8,1.5,3.2,3.4,3.2c0.2,0,0.4,0,0.6-0.1l0,3.8
			c0,1.9,1.4,3.3,3.3,3.3c0.9,0,1.8-0.4,2.4-1c0.1-0.1,0.1-0.1,0.2-0.2c0.6,0.4,1.3,0.7,2.1,0.7c1.9,0,3.3-1.4,3.3-3.3
			c0.1-5.4,0-10.8-0.1-16.1c0.2-0.5,0.4-1,0.5-1.4c0.1-0.4,0.2-0.7,0.2-1.1c0-0.1,0-0.1,0-0.2l0-0.1c0-0.3,0.1-0.6,0.1-1l0-0.9
			c0-0.1,0-0.3,0-0.4c0-0.6-0.1-1.1-0.2-1.7c-0.1-0.3-0.1-0.5-0.2-0.8c1-1.5,1.4-3.4,1.4-5.3c-0.6-23.9-1.1-48.1-1.4-72.5
			c0.8,5.7,2.3,10.3,4.9,13.2c2.1,2.4,4.7,3.6,7.9,3.6c3.9,0,8.3-1.8,13.7-5.5c3.9-2.7,13-11.7,19.7-20.3c0.2,0.2,0.4,0.3,0.7,0.4
			c0.2,1.8,1.6,3.1,3.5,3.1c1,0,1.9-0.4,2.5-1c0.6-0.6,1-1.5,1-2.4c0-3.2,0.1-6.6,0.2-10.2c0.4,0.6,0.8,1.2,1.3,1.8l0.7,36.2
			l0.7,36.6c0,0,0,0,0,0c0,0.1-0.1,0.3-0.1,0.6c-0.5,3.5,0.5,6.9,2.9,9.1c1,1.3,2.5,2.3,3.9,2.7v0.9c0,2,1.5,3.5,3.5,3.5
			c0.2,0,0.4,0,0.6-0.1v8.6c0,2,1.5,3.5,3.5,3.5c2,0,3.5-1.5,3.5-3.5v-16.9c0,0,0-0.1,0.1-0.1c0.6-1.1,1-2.2,1.1-3.5
			c0.1-0.2,0.1-0.4,0.2-0.6c0.2-0.5,0.4-0.9,0.5-1.3c0.4-1.1,0.4-2.3,0.2-3.5c0-1.3-0.4-2.6-0.8-3.5l-0.6-33.7l-0.6-30
			c0.8,0.6,1.7,1.2,2.7,1.8c4.9,2.9,9.9,5.9,15,8.8c9,5.1,18.7,10.4,29.6,16.2c0.7,1.8,1.9,3.2,3.7,4.1c0.6,0.3,1.3,0.6,2,0.8v8.3
			c0,2,1.5,3.5,3.5,3.5c2,0,3.5-1.5,3.5-3.5v-7.9c0.9-0.1,1.8-0.4,2.6-0.8c0.6,0.4,1.3,0.6,2,0.6c2,0,3.5-1.5,3.5-3.5v-5.4
			c0.3-0.8,0.5-1.8,0.6-2.7c0.2-2.9-0.9-5.8-2.9-7.7c-1.1-1.8-2.9-3.2-5.1-3.8c-16.7-8.7-32-17.3-46.8-26.1
			c-1.5-0.9-2.8-1.7-4.1-2.5c-0.8-0.5-1.6-1-2.3-1.4c0.2-0.2,0.3-0.4,0.5-0.7c12-16.9,25.7-36.1,21.8-57.6
			c-1.9-10.8-10.1-17.2-22-17.2c-3.1,0-6.3,0.5-9.5,1.3l-0.1-6.4l-0.2-9c-0.1-6.1-5-9.2-9.7-9.2c0,0,0,0,0,0c-2.7,0-5.2,1-6.9,2.8
			c-1.7,1.7-2.5,4-2.5,6.6l0.5,25.7c-7.9,4-16.4,7.4-23.9,10.5c-16.5,6.7-29.6,12-30.1,20.2c-0.2,4.3,1.9,5.6,4,6.7
			c-0.3,2.3-0.6,4.8-0.9,7.3c-1.2,9.6-2.5,20-3.2,29.9c-0.2-24.1-0.3-48.3-0.3-72.5c0,0,0-0.1,0-0.1c0-0.2,0.1-0.5,0.1-0.7
			c0.1-0.5,0.2-1.1,0.3-1.7c0-0.4,0-0.7,0-1.1c0,0,0-0.1,0-0.1l0.5-0.8c0.7-1.2,1.5-2.4,2.3-3.6c1.5-2.4,1.8-5,0.8-7.4
			c-1-2.4-3.2-4.2-5.8-5c-1.8-2.3-4.7-3.6-7.9-3.6c-4.9,0-9.9,3.3-9.9,9.6c0,2.1,0,4.2,0,6.3l0,0.3c-0.5,0.5-0.8,1-1.2,1.5l-0.1,0.2
			c-13.5,21.4-27.4,43.6-40.8,65.6c-7.1,11.6-13.4,22.1-19.2,32.2c-2.1,3.6-4.1,7.4-6.1,11c-2.3,4.4-4.7,8.9-7.3,13.2l-0.4-0.8
			c-0.7-1.2-1.5-2.2-2.5-3c-3.9-6.4-7.3-13.3-10.6-20c-0.8-1.7-1.7-3.4-2.5-5.1c-5.8-11.7-13-22.8-19.9-33.5
			c-2.2-3.3-4.4-6.8-6.5-10.2c-11-17.4-21-35.8-30.8-53.5c-1.9-3.5-3.9-7.1-5.8-10.6c0-1.5,0-3,0-4.6c0-1.9,0-3.8,0-5.8
			c0-6.3-5-9.6-9.9-9.6c-0.4,0-0.8,0-1.2,0.1l0-0.1c-0.5-0.9-1-1.8-1.5-2.7C114.4,177.1,111.5,175.4,108.1,175.4L108.1,175.4z
			 M376.2,231.7c2.3-1.6,5.1-2.5,7.4-2.5c2.7,0,4.4,1.2,5.2,3.7c1.4,4.5-1.5,12.6-4.7,18.6c-2.3,4.3-4.8,8.4-7.3,12.2l-0.4-19.8
			L376.2,231.7L376.2,231.7z M322.6,276.7c0.5-5.3,1.5-14.4,2-17.9c0.5-4.1,10.8-8.7,20.7-13c3.9-1.7,8-3.5,12-5.5l0.4,21.8
			l0.5,24.4l-0.7,1.3l-0.3,0.5c-1.4-2.1-3.7-3.4-6.5-3.4c-0.7,0-1.4,0.1-2.2,0.3c-3.4,0.5-5.9,3.1-6.4,6.6c-0.3,0.8-0.6,1.7-0.6,2.6
			c-0.3,0.5-0.7,0.9-1.1,1.5c-2.9,3.9-6.9,9.2-10.6,13.5c-5,5.7-7.1,6.8-7.7,7c-0.4-0.7-1.3-3.4-1.6-12.6c0-0.7,0-1.4,0-1.9
			c0-2.5,0-3,0.5-3.7c0.8-1.1,2.9-2.5,6.7-5.1l0.3-0.2c0,0,0,0,0.1,0c0.4-0.3,0.7-0.5,1.1-0.8c4.1-3,8.7-6.4,8.7-12.2
			c0.1-2.7-0.9-4.3-1.7-5.2c-1.1-1.2-2.7-1.8-4.4-1.8c-0.7,0-1.5,0.1-2.2,0.3C327.7,273.6,325.5,274.7,322.6,276.7
			C322.6,276.6,322.6,276.6,322.6,276.7L322.6,276.7z M447.6,181.9c-8.9,0-18.7,8-26.2,21.3c-8.4,14.8-13,34.6-13,55.6
			c0,13.7,1.5,27,12.1,31.7c2.2,1,4.5,1.6,7,1.6c14.1,0,28.8-17.3,37-28.6v1.7c0,2,1.5,3.5,3.5,3.5c2,0,3.5-1.5,3.5-3.5v-5
			c0.8-0.6,1.3-1.6,1.3-2.7v-5.1c0.7-1.9,0.8-3.9,0.4-5.7c-0.8-3.5-3.5-5.9-7.2-6.4c-0.6-0.2-1.2-0.2-1.7-0.2c-0.1,0-0.2,0-0.3,0
			c-3.3,0.1-6.9,2.3-7.7,6c0,0,0,0.1,0,0.1c0,0.1,0,0.2-0.1,0.3c0,0,0,0,0,0.1l0,0c-0.1,0.1-0.2,0.2-0.3,0.4l-0.5,0.8l-0.2,0.3
			c-0.7,1.1-1,2.3-1.1,3.6c-0.4,0.6-0.9,1.3-1.4,2c-5.3,7.6-14.2,20.3-19.8,20.3c-2.8,0-4.5-4.4-5.4-8.1
			c-5.1-22.7,4.7-53.8,11.8-63.2c1.4-1.8,2.2-2.2,2.5-2.3c0.7,0.6,2,2.2,2.6,3c0.6,0.8,1,1.3,1.3,1.6c0.1,0.1,0.2,0.2,0.4,0.3
			c1,0.6,2.2,0.9,3.5,0.9c4.2,0,9.8-3.5,11.4-8.8c0.8-2.8,1.1-8.3-6.6-13.3c0,0,0,0-0.1,0C452.4,182.6,450,181.9,447.6,181.9
			L447.6,181.9z"/>
	</g>
</g>
</svg>
