<?xml version="1.0" encoding="utf-8"?>
<!-- Generator: Adobe Illustrator 19.0.0, SVG Export Plug-In . SVG Version: 6.00 Build 0)  -->
<svg version="1.1" id="Layer_1" xmlns="http://www.w3.org/2000/svg" xmlns:xlink="http://www.w3.org/1999/xlink" x="0px" y="0px"
	 viewBox="0 0 824 590.8" style="enable-background:new 0 0 824 590.8;" xml:space="preserve">
<g id="XMLID_684_">
	<path id="XMLID_862_" d="M117.1,495.8c-0.4-3-0.6-6-0.7-9c0-0.1,0-0.2,0-0.3c0.1-0.8,0.2-1.7,0.2-2.5c0.1-0.9-0.1-1.8-0.2-2.6
		c-0.1-1.7-0.1-3.4-0.1-4.9c0-0.8-0.1-1.6-0.3-2.3c0-5.3-0.2-12.2-0.3-21.3c-1.4-48.8-3.5-76.1-8.5-88.6c0.7-1.4,1.3-2.9,2.1-4.3
		c0.3-0.6,0.6-1.3,0.7-1.9c0,0,0,0,0-0.1c3.4-5.9-0.9-12.2-6.3-13.5c-3.1-1.5-7-1.3-9.9,1.7c-0.4,0.5-0.8,1-1.3,1.5
		c-3.1-0.8-6.8,0.1-8.9,2.3c-1.5,1.6-2.3,3.5-2.5,5.3c-0.8,1.3-1.3,2.9-1.3,4.6c0,3.3,0,6.6,0,9.9c0,0,0,0.1,0,0.1
		c-0.7,1.8-1.3,3.6-1.9,5.2c-0.1,0.3-0.1,0.6-0.2,0.9c-1.3,3.5-2.5,7.1-3.7,10.6c-0.5,1.5-15.3,53-16.7,52.2
		c-1.1,0.5-3.4-4.5-3.9-5.6c-4.7-9.3-10.9-24.6-16.4-33.4c-0.5-1-1-2.1-1.6-3.1c0.7-3.3,1.5-6.7,2-10.1c1.3-8.2-7.1-14.6-14-9.7
		c-0.8-0.2-1.6-0.4-2.4-0.3c-1.3,0.1-2.5,0.4-3.7,0.9C12.1,378,6.9,381,5.2,387c0,0.1,0,0.3-0.1,0.4c-0.6,1.6-0.9,3.4-0.4,5.2
		c1.3,5.4,2.8,10.7,4.4,15.9c-5.7,18.9-8,94.7-7.7,121.6c-0.5,1.6-0.7,3.3-0.6,5.1c-0.9,2.5-1.1,4.7-0.6,7.6c0.5,2.8,2.9,5,5.6,6
		c0.1,2.4,0.1,4.8,0.2,7.1c0,1.8,1.8,2.5,3.1,2.1c0,2.1,0,4.2,0,6.2c0,2.9,4.5,2.9,4.5,0c0-5,0-10.1-0.1-15.1
		c0.5-0.1,1.1-0.3,1.6-0.5v1.4c0,1.5,1.2,2.2,2.3,2.2v5.8c0,2.9,4.5,2.9,4.5,0v-20.7c0.2-0.4,0.4-0.9,0.5-1.4c0.6-2.4,0.9-5.2,0-7.6
		c0.3-19.2,1.7-93.3,3.2-93.9c0.1-0.1,0.7,0.9,1.7,2.8c8.8,17.8,14.8,34.9,29.9,29.1c21.6-8.8,28-58.8,32.6-65.3
		c2.7-3.8,3.6,57,4.5,83.6c-0.1,0.3-0.2,0.6-0.3,0.9c-1,3.8-2.1,8.3-1.1,12.2c0.9,3.1,3.1,5.8,6,7.2v10.2c0,2.9,4.5,2.9,4.5,0V506
		c0.1,0,0.2,0,0.3,0v20.2c0,2.9,4.5,2.9,4.5,0V505c0.3-0.1,0.7-0.3,1-0.4v6.4c0,2.9,4.5,2.9,4.5,0v-8.2
		C116.2,501.2,117.5,498.9,117.1,495.8z"/>
	<path id="XMLID_900_" d="M327.4,469.1c-1.3-2.5-3.8-4.1-6.4-4.7c-24-12.6-47.7-25.7-70.9-39.6c-4.8-2.9-8.8-5.5-12.5-7.7
		c18.5-26.1,40.8-55.4,35-88.2c-4.1-23.3-27.9-27.3-47.4-20.4c-0.2-9.1-0.3-18.1-0.5-27.2c-0.3-14.6-23-14.6-22.7,0l0.8,40.6
		c-36.3,18.9-80.5,28.7-81.4,44.6c-0.3,5.5,2.3,6.1,6.2,8.3c-5.9,49.7-21.7,141.7,29.1,106.8c6-4.2,22.3-20.2,32.4-34.6v2.4
		c0,1.8,1.7,2.5,3,2.1c0,0.7,0,1.4,0,2c0,2.9,4.5,2.9,4.5,0c0-6.2,0.2-12.4,0.5-18.6c0.3-0.8,0.5-1.7,0.6-2.6
		c3.1-5.3,0.7-14.1-7.4-14.1c-1,0-1.9,0.2-2.7,0.4c-4.5,0.6-7,4.1-7.4,7.8c-0.6,1.3-0.9,2.7-0.9,4.2c-9.2,12.1-28.6,38.8-34,34.5
		c-3.2-2.5-3.6-17.6-3.7-21.6c0-10.5-1.7-9.2,12.6-19.1c6.5-4.9,13.6-9.3,13.6-17.2c0.3-6-4-8.5-8.7-7.1c-2.2,0.6-5.3,2.3-9.3,5
		c-0.8,0.6-4.5,3.4-5,3.6c-0.7,0.3,3.2-32.6,3.3-33.4c1.4-11.2,29.8-19.4,55.2-32.4c0.5,25.1,0.9,50.2,1.4,75.3
		c-0.8,1.5-1.7,2.9-2.5,4.4c-3.3,5.9-1.4,12.7,2.9,16.8c0.7,37,1.4,74,2.1,111c0,0.1,0,0.2,0,0.3c-0.1,0.3-0.2,0.6-0.2,0.8
		c-0.7,4.3,0.6,8.5,3.5,11.1c1.6,2.1,4.3,3.7,6.7,3.7v3.9c0,2.9,4.5,2.9,4.5,0v-4.7c0.6-0.1,1.1-0.1,1.7-0.3v23.2
		c0,2.9,4.5,2.9,4.5,0v-26.5c0.2-0.2,0.3-0.4,0.5-0.6c0.8-1.4,1.2-2.9,1.3-4.4c0.1-0.4,0.3-0.8,0.4-1.3c0.3-0.6,0.5-1.3,0.8-2
		c0.4-1.3,0.4-2.8,0.1-4.2c0.1-1.5-0.4-3.3-1.2-4.8c-0.6-34.3-1.3-68.6-1.9-102.9c2.4,1.6,5.1,4.1,8.7,6.3c7.5,4.5,15,8.9,22.6,13.2
		c15,8.6,30.3,16.8,45.6,24.9c0.6,2.3,2,4.4,4.4,5.7c1.5,0.8,3,1.1,4.6,1.2v15.1c0,2.9,4.5,2.9,4.5,0v-14.9c0.5,0.1,1.1,0.2,1.6,0.1
		c2.5-0.1,4.6-1,6.1-2.5c0.1,2.8,4.5,2.8,4.5-0.1v-8.7c0.5-1.1,0.8-2.3,0.8-3.7C331.4,475.1,330,471.4,327.4,469.1z M226.7,392.8
		c-0.4-19.8-0.7-39.5-1.1-59.3c8.1-6.2,21.4-8.6,24.9,2.4c2.8,8.8-3.4,23-7.3,30.4C238.3,375.4,232.6,384.2,226.7,392.8z"/>
	<path id="XMLID_686_" d="M371.7,358.1c-1-4.3-4.5-6.8-8.4-7.3c-0.8-0.2-1.5-0.3-2.3-0.3c-3.8,0.2-8,2.7-8.7,6.7
		c-0.1,0.4-0.2,0.8-0.3,1.2c0,0.1,0,0.1-0.1,0.2c-0.1,0.2-0.2,0.3-0.3,0.5c-0.1,0.1-0.2,0.3-0.3,0.4c-0.3,0.5-0.7,1.1-1,1.6
		c-0.9,1.5-1.3,3.2-1.2,4.9c-12.6,17.7-37.5,56.7-45.9,21.1c-9.5-42.3,14.5-104.4,25-102.4c1.4-0.1,6.2,6.5,7.4,7.7
		c8.9,5.3,30.8-12.9,9.3-26.9c-23.1-13.6-64.8,32.2-64.8,110.3c0,16.7,1.1,38.2,16.5,45.1c23.4,11.2,53-25,67.6-47.3
		c0.1-0.1,0.2-0.2,0.3-0.3v12.1c0,2.9,4.5,2.9,4.5,0v-9.5c1-0.1,2-0.8,2-2.1v-8.3C372,363.1,372.3,360.6,371.7,358.1z"/>
	<path id="XMLID_859_" d="M460.7,298c-1.1-1.6-2.9-3.2-4.9-4c1-32.2,1.6-65.6,1.6-76.3c-3.3-3.9-5.2-4.9-10.1-2.9
		c-14.4,5.8-7.6,13.9-12,87.2c-16.4,6.7-27.5,12.1-34.9,14.7c0,0-5-56-7.8-61.8c-4-7.2-20.8,1-18.6,15.6c0.1,2,0.4,4,0.8,5.9
		c1.8,12.5,3.2,26.1,4.3,40.9c0.2,2.2,0.3,4.3,0.4,6.4c-0.6,0.4-1.1,0.7-1.7,1.1c-3.8,2.4-5.5,7.1-3.7,11.3c1.2,2.8,3.5,4.4,6.1,5.1
		c0.3,10.7,0.3,18.7,0.7,24.5c-0.7,2.3-1.2,4.6-1,7.2c0.3,3.7,2.1,6.8,5.6,8.3c1.8,0.8,4.1,0.9,6.2,0.3c0.1,1.2,0.2,2.4,0.3,3.6
		c0.2,2.1,2.7,2.7,3.9,1.7v4.1c0,2.9,4.5,2.9,4.5,0v-17.3c0.1-0.1,0.2-0.2,0.3-0.4c1.3-1.8,1.7-4.1,1.8-6.3c0-0.6-0.1-1.2-0.2-1.8
		c0.1-0.5,0.3-1,0.3-1.5c0.1-0.2,0.1-0.4,0.2-0.5l-0.1,0c0.1-0.8,0.3-1.6,0.4-2.4c0.2-2.1-0.6-4-1.9-5.5c0-4.3-0.3-8.9-0.3-13.6
		c0.3-5-4.3-3.3,34-18.9c-1.3,27.5-1.5,30.4-1.9,39.5c-0.3,0.7-0.7,1.4-1,2.1c-2,4.8-0.2,9.5,3.9,12.4c1,0.7,2.2,1.1,3.5,1.2
		c0,2.4,0.1,4.7,0.2,7.1c0.2,2.1,2.7,2.7,3.9,1.7v15.9c0,2.9,4.5,2.9,4.5,0v-26.8c2.6-1.4,4.4-3.6,5.3-6.5c0.7-2.2,0.3-4.2,0.5-6.4
		c0.1-1.6-0.4-3.3-1.3-4.7c1-8.8,1.8-25.2,2.5-44c0.6-0.3,1.2-0.5,1.8-0.8c3-1.4,4.4-4.5,4.4-7.7C462.3,303,462.1,300.1,460.7,298z"
		/>
	<path id="XMLID_901_" d="M514,272.6c-1.2,0-1.9,0-2.1,0.1c-2.7,1.1,1-3.8,2.7-6.2c16-21.8,27.3-53,6.8-63.1
		c-16.8-8.2-49.1,5.3-49.1,5.3c0,0-0.1,0-0.1,0c-0.6-0.1-1.2-0.2-1.8-0.2c-3.4,0-5.8,1.6-7.2,3.8c-3.5,3-4,8.7-1.5,12.4
		c-0.4,7.7,0.9,18.6,1.8,34.8c1,18.8,3.5,56.7,6.4,74.6c0.1,0.7,0.3,1.8,0.4,3c-0.2,0.4-0.4,0.8-0.6,1.1c-0.5,1.2-0.9,2.5-1,3.8
		c-0.7,2.2-1.1,4.3-0.7,6.9c0.6,3.1,3.5,5.4,6.3,6.3c0.2,0.1,0.3,0.1,0.5,0.1v11.4c0,2.9,4.5,2.9,4.5,0v-11.4
		c0.2-0.1,0.5-0.1,0.7-0.2c0.5,0,1-0.1,1.5-0.2v3.3c0,1.5,1.1,2.2,2.3,2.2c0,1.8,0.1,3.6,0.1,5.5c0,2.9,4.5,2.9,4.5,0
		c0-5.2-0.1-10.4-0.2-15.6c0.2-0.3,0.5-0.6,0.7-1c0.9-0.7,1.7-1.5,2.5-2.3C544,314,545.9,270.3,514,272.6z M486.4,273.4
		c-0.9-1.4-2.3-46.7-2.3-48.7c2.9-1.2,5.8-1.7,9.1-2.2c24.1-3.8,20.1,14.9,9.5,31.8C501.2,256.6,487.4,276,486.4,273.4z
		 M498.8,321.9c-1.1,1-6.6,5.9-7.2,4.5c-0.3-0.8-2.9-18.9-2.9-26.7c0.8-1.1,7.6-3.2,8.9-3.6C523.9,287.6,512.9,309.9,498.8,321.9z"
		/>
	<path id="XMLID_876_" d="M622.7,251.5c-1.2-1.5-3-2.7-5-3.3c-2.5-33.6-10-75.6-21.8-81.1c-3.8-2.1-9.1-0.9-10.9,0.8
		c-16.7,6.7-29.7,56.4-34,74c-3.1,12.4-5.6,24.5-7.4,36.4c0,0.2-0.1,0.4-0.1,0.6c-1.5,0.4-2.9,1.2-3.9,2.2c-1.1,1.2-1.8,2.4-2.1,3.7
		c-2.5,4.2-0.9,10.4,3.3,12.9c-0.6,4.5-0.9,8.2-1,11.2c0,0.1-0.1,0.1-0.1,0.2c-1.6,3.4-1.5,7.6,0.9,10.4c1.6,2.9,4.8,5,8,4.9
		c0.7,0,1.4-0.2,2-0.3v15.5c0,2.9,4.5,2.9,4.5,0v-18.2c0.4-0.4,0.7-0.8,1-1.3c2.1-1.8,3.2-4.9,3.2-7.6c0-1.3-0.3-2.5-0.8-3.7
		c0.3-2.9,1.2-14.3,1.9-14.9c1.6-3.3,37.6-19.6,38.6-18.7c0.5,0.3,0.2,17.2,0.2,17.8c0,0.5,0.2,1,0.3,1.4c-1.2,3.2-0.7,7,1.5,9.5
		c0.9,1.4,2.2,2.4,4,3v14.3c0,2.9,4.5,2.9,4.5,0v-14.1c0.5-0.1,1-0.1,1.4-0.3v2.5c0,1.8,1.7,2.5,3,2.1c0,1.5,0,3,0,4.5
		c0,2.9,4.5,2.9,4.5,0c0.1-6.2,0-12.4-0.1-18.5c0.5-1.1,0.8-2.3,0.9-3.6c0.7-1.3,1.2-2.7,1.2-4.4c0-0.5,0-1.1,0-1.6
		c0-2.1-0.8-4.2-2.2-5.8c0.3-4,0.5-9,0.4-14.8c0.8-0.6,1.6-1.3,2.3-2c1-1,1.6-2.1,2.1-3.2C625.2,259.1,625.2,254.7,622.7,251.5z
		 M598,255c-0.1,0.3-0.3,0.6-0.4,0.7c0,0-12.7,5.2-23.5,10.6c-6.8,3.4-6.3,3.2-11.1,5.1c0-11.2,18-77.9,22.5-79.8
		C590.2,191.3,600,254.1,598,255z"/>
	<path id="XMLID_863_" d="M819.3,4.1c-6.5-6.1-15.9-4.7-22.8-0.2c-1.6,1.1-2.8,2.3-3.6,3.7c-54.1,55.8-92.4,122.2-122,192.9
		c-14.8-18.1-28.5-37.1-41-57c-7.8-12.3-27.4-1-19.6,11.4c15.3,24.4,32.4,47.4,51.1,69.3c-11.7,30.2-21.9,61.1-31.3,92
		c-1.3,0.9-2.5,2.1-3.3,3.6c-2.3,4.3-1.8,10.4,1.8,13.9c0.1,1.7,0.1,3.3,0.2,5c0.1,2.9,4.6,2.9,4.5,0c0-0.5,0-1.1-0.1-1.6
		c0.8,0.5,1.6,0.8,2.4,1.1c0.2,0.1,0.4,0.1,0.6,0.2c0.2,7.3,0.3,14.6,0.1,21.9c-0.1,2.9,4.5,2.9,4.5,0c0.2-6.8,0.1-13.6,0-20.4
		c0.9,0.1,1.9,0.1,2.7-0.1c0.1,0,0.2-0.1,0.4-0.1v6.1c0,2.9,4.5,2.9,4.5,0v-10.2c1.8-2,3-4.6,3.2-7.6c0-0.7,0.1-1.5,0.1-2.2
		c0-0.8,0-1.6-0.2-2.3c9-29.8,18.8-59.4,29.9-88.4c0.7-0.2,1.3-0.5,1.9-0.8c0.1,1.5,0.1,3,0.2,4.5c0.1,2.9,4.7,2.9,4.5,0
		c-0.1-3.1-0.3-6.3-0.4-9.4c0.2-0.4,0.4-0.8,0.5-1.3c0.2-1.1,0.3-2.3,0.3-3.5c0.2-0.8,0.3-1.6,0.2-2.4c-0.1-1.3-0.3-2.7-0.6-4
		c24.4-60.2,55.1-117.5,96.8-167.6c1-0.6,1.9-1.2,2.8-2.2c4.9-5.3,10.2-9.4,16.6-12.7c1.6-0.8,3.3-1.7,5-2.5c0.1,2.4,0.1,4.8,0,7.2
		c-0.1,2.9,4.4,2.9,4.5,0c0.1-1.3,0-2.6,0-3.9c0.6,0.2,1.4,0.2,2-0.2V52c0,2.9,4.5,2.9,4.5,0v-27c0.3-0.4,0.7-0.9,1-1.3
		C825.5,17.4,824.8,9.3,819.3,4.1z"/>
</g>
</svg>
