<?xml version="1.0" encoding="utf-8"?>
<!-- Generator: Adobe Illustrator 16.0.0, SVG Export Plug-In . SVG Version: 6.00 Build 0)  -->
<!DOCTYPE svg PUBLIC "-//W3C//DTD SVG 1.1//EN" "http://www.w3.org/Graphics/SVG/1.1/DTD/svg11.dtd">
<svg version="1.1" id="Layer_1" xmlns="http://www.w3.org/2000/svg" xmlns:xlink="http://www.w3.org/1999/xlink" x="0px" y="0px"
	 width="192.816px" height="168.834px" viewBox="0 0 192.816 168.834" enable-background="new 0 0 192.816 168.834"
	 xml:space="preserve">
<g>
	<defs>
		<rect id="SVGID_1_" width="192.816" height="168.834"/>
	</defs>
	<clipPath id="SVGID_2_">
		<use xlink:href="#SVGID_1_"  overflow="visible"/>
	</clipPath>
	<path clip-path="url(#SVGID_2_)" fill="#3C97D3" d="M65.362,163.009L5.308,100.596c-7.274-7.56-7.043-19.585,0.517-26.858
		L80.488,1.895c2.699-2.597,6.992-2.514,9.589,0.185l81.695,84.904l-79.551,76.544C84.662,170.8,72.636,170.569,65.362,163.009"/>
	<path clip-path="url(#SVGID_2_)" fill="#EFC31A" d="M168.014,85.313c-2.162-3.614-5.055-6.819-7.931-9.766
		c-12.518-12.823-24.747-26.245-37.317-39.016c6.311,0.551,11.353,4.235,16.664,7.056c15.326,8.137,30.002,17.265,41.412,30.702
		c7.547,8.887,12.082,18.911,11.903,30.896c-0.196,13.303,0.07,26.612,0.071,39.92c0,8.452-5.027,13.831-12.482,13.51
		c-7.168-0.31-11.975-6.576-11.166-14.768c1.193-12.063,2.827-24.097,3.627-36.185C173.329,99.572,171.956,92.792,168.014,85.313"/>
	<path clip-path="url(#SVGID_2_)" fill="#010101" d="M23.602,56.632L23.602,56.632c0.462,0.356,0.94,0.705,1.43,1.049l0.099,0.071
		c0.482,0.337,0.977,0.668,1.484,0.993l0.106,0.067c3.75,2.394,8.163,4.483,13.041,6.293c0.012,0.004,0.024,0.008,0.036,0.013
		c0.666,0.247,1.342,0.488,2.026,0.724c0.06,0.021,0.119,0.042,0.179,0.063c0.666,0.229,1.34,0.454,2.02,0.673
		c0.069,0.021,0.139,0.044,0.208,0.067c0.689,0.22,1.385,0.437,2.089,0.647c0.029,0.008,0.059,0.018,0.089,0.026
		c3.653,1.093,7.491,2.053,11.441,2.892c0.138,0.029,0.275,0.06,0.414,0.088c0.642,0.135,1.289,0.266,1.937,0.394
		c0.229,0.045,0.456,0.09,0.685,0.135c0.606,0.118,1.215,0.231,1.825,0.344c0.275,0.05,0.549,0.101,0.824,0.149
		c0.587,0.104,1.175,0.208,1.765,0.308c0.3,0.05,0.6,0.101,0.9,0.149c0.578,0.095,1.158,0.189,1.739,0.279
		c0.309,0.05,0.619,0.096,0.929,0.142c0.578,0.088,1.157,0.176,1.738,0.259c0.288,0.041,0.577,0.079,0.866,0.119
		c1.187,0.165,2.377,0.32,3.568,0.466c0.263,0.032,0.526,0.067,0.789,0.098c0.467,0.057,0.935,0.107,1.403,0.16
		c0.452,0.051,0.904,0.104,1.356,0.151c0.442,0.048,0.883,0.092,1.325,0.137c0.481,0.048,0.961,0.098,1.441,0.144
		c0.427,0.041,0.853,0.079,1.279,0.116c0.495,0.046,0.989,0.09,1.483,0.131c0.413,0.034,0.826,0.068,1.238,0.101
		c0.512,0.041,1.022,0.079,1.532,0.117c0.396,0.028,0.791,0.058,1.186,0.084c0.535,0.037,1.069,0.07,1.602,0.104
		c0.366,0.022,0.734,0.046,1.099,0.067c0.597,0.035,1.191,0.064,1.784,0.096c0.298,0.015,0.597,0.031,0.894,0.045
		c0.891,0.042,1.779,0.081,2.661,0.113c1.35,0.049,2.475-1.022,2.512-2.372l0.138-5.129c0.036-1.338-1.019-2.446-2.356-2.494
		c-0.986-0.036-1.966-0.079-2.942-0.126c-0.319-0.015-0.635-0.033-0.952-0.05c-0.656-0.033-1.309-0.068-1.959-0.108
		c-0.378-0.021-0.753-0.046-1.129-0.07c-0.59-0.038-1.179-0.077-1.765-0.119c-0.388-0.028-0.775-0.058-1.16-0.086
		c-0.575-0.044-1.147-0.09-1.717-0.139c-0.382-0.031-0.763-0.063-1.143-0.097c-0.585-0.052-1.166-0.107-1.746-0.163
		c-0.354-0.035-0.71-0.066-1.062-0.102c-0.716-0.073-1.426-0.149-2.134-0.229c-0.33-0.036-0.66-0.073-0.989-0.11
		c-0.751-0.087-1.498-0.176-2.238-0.269c-0.391-0.049-0.776-0.102-1.164-0.153c-0.492-0.063-0.983-0.129-1.471-0.195
		c-0.428-0.061-0.853-0.122-1.278-0.185c-0.436-0.063-0.872-0.127-1.305-0.191c-0.445-0.068-0.888-0.138-1.328-0.207
		c-0.399-0.063-0.795-0.128-1.191-0.194c-0.456-0.076-0.912-0.151-1.364-0.229c-0.359-0.063-0.715-0.127-1.072-0.191
		c-0.475-0.085-0.951-0.17-1.421-0.258c-0.261-0.049-0.517-0.102-0.776-0.15c-1.266-0.244-2.513-0.496-3.734-0.76
		c-0.001,0-0.001-0.001-0.002-0.001c-0.557-0.12-1.104-0.245-1.651-0.37c-0.208-0.047-0.417-0.094-0.623-0.141
		c-0.526-0.123-1.045-0.248-1.561-0.374c-0.212-0.053-0.425-0.104-0.635-0.156c-0.521-0.131-1.037-0.262-1.548-0.396
		c-0.183-0.049-0.366-0.097-0.548-0.146c-0.535-0.142-1.066-0.286-1.589-0.433c-0.113-0.032-0.224-0.064-0.336-0.097
		c-3.149-0.894-6.081-1.863-8.767-2.902c-0.032-0.014-0.065-0.025-0.097-0.037c-0.527-0.205-1.044-0.412-1.552-0.622
		c-0.031-0.014-0.061-0.026-0.092-0.039c-6.517-2.703-11.426-5.833-14.209-9.26c-2.322-2.859-3.122-5.739-2.519-9.063
		c2.208-12.158,23.12-16.537,39.594-17.791L74.051,8.09c-5.553,0.008-14.723,0.317-24.237,1.909
		C28.21,13.615,16.093,21.861,13.796,34.505c-1.116,6.146,0.473,12.077,4.595,17.152C19.833,53.433,21.593,55.086,23.602,56.632"/>
</g>
</svg>
