<?xml version="1.0" encoding="utf-8"?>
<!-- Generator: Adobe Illustrator 16.0.0, SVG Export Plug-In . SVG Version: 6.00 Build 0)  -->
<!DOCTYPE svg PUBLIC "-//W3C//DTD SVG 1.1//EN" "http://www.w3.org/Graphics/SVG/1.1/DTD/svg11.dtd">
<svg version="1.1" xmlns="http://www.w3.org/2000/svg" xmlns:xlink="http://www.w3.org/1999/xlink" x="0px" y="0px" width="600px"
	 height="600px" viewBox="0 0 600 600" enable-background="new 0 0 600 600" xml:space="preserve">
<g id="back_body_pattern">
</g>
<g id="Layer_1">
	<g>
		<defs>
			<path id="back_body_clippath" d="M120.577,235.659c1.972,6.772,2.296,7.887,5.793,19.264c0.639,2.233,3.071,13.891,2.888,15.687
				c-2.263,22.36,0.271,25.429,4.634,42.523c3.127,14.972,4.754,34.369,5.596,47.006c0.24,3.593-2.867,19.216-1.811,29.183
				c0.608,5.744,2.18,8.26,2.417,9c3.826,9.789,6.282,19.992,6.177,30.86c-1.642,7.804-3.639,13.248-3.914,19.683
				c-0.217,5.094-0.647,9.932-0.171,14.375c0.524,4.944,2.114,9.287,2.925,14.182c0.658,3.955,0.612,8.402,0.691,12.914
				c0.136,7.621-1.39,19.17-2.581,28.74c-0.043,1.262-0.118,2.219,0.888,2.899c11.378,6.783,4.991,31.906,7.723,46.607
				c0.16,1.307,0.095,1.576,1.185,2.262c5.211,3.285,21.665,5.515,33.091,6.181c19.05,1.112,36.498,1.143,62.869,8.549
				c4.874,1.367,12.221,2.664,17.195,2.975c7.217,0.703,13.805,1.492,19.879,1.494l29.869,0.012
				c28.502,0.017,41.523-8.151,64.037-9.514c36.395-3.842,65.441-3.358,69.02-11.238c0.479-5.633,0.683-12.745,0.806-21.396
				c0.162-11.34-0.148-23.955,7.875-29.127c-2.547-16.721-3.949-34.33-0.933-43.771c2.957-7.069,1.947-16.021,1.939-24.274
				c-0.002-4.982-3.766-9.387-3.496-14.096c0.256-4.546-1.633-9.425-1.291-13.81c0.871-13.172,5.965-21.639,7.711-29.758
				c2.35-10.898,1.244-21.607,0.32-46.379c-0.131-3.637,0.412-6.408,1.104-10.043c5.299-27.992,9.392-50.397,7.789-70.576
				c5.512-7.695,7.318-21.65,10.318-30.413c-39.355-28.895-9.563-78.019,30.272-59.191c32.441-81.604,21.14-135.596-53.438-155.216
				c-19.053-5.013-35.598-4.707-47.271-7.983c-5.145-2.743-9.934-5.196-18.568,3.555c-0.766,0.71-2.461,0.155-3.196-0.169
				c-5.981-2.64-11.121-9.43-17-4.506C312.9,40.879,262.821,29.746,228.38,12.077c-2.372-1.877-4.471-2.111-6.648-1.204
				c-1.32,0.553-2.541,1.493-3.714,2.476c-2.117,1.78-4.58,3.13-7.484,4.132c-0.664,0.23-0.891,0.141-1.53-0.203
				c-3.678-1.337-4.724-4.671-7.901-5.163c-4.295-0.665-11.263,1.802-18.006,2.475c-13.595,1.358-29.103,3.381-43.55,7.682
				c-6.463,1.925-13.054,4.005-18.798,6.433c-6.632,2.802-12.25,5.959-17.065,8.11C60.286,63.2,66.302,110.803,89.045,176.761
				C130.574,156.835,159.902,207.757,120.577,235.659z"/>
		</defs>
		<clipPath id="back_body_clippath_1_">
			<use xlink:href="#back_body_clippath"  overflow="visible"/>
		</clipPath>
		
			<path id="back_body" clip-path="url(#back_body_clippath_1_)" fill="#F4F4F4" stroke="#807F7F" stroke-width="0.2015" stroke-miterlimit="2.613" d="
			M120.577,235.659c1.972,6.772,2.296,7.887,5.793,19.264c0.639,2.233,3.071,13.891,2.888,15.687
			c-2.263,22.36,0.271,25.429,4.634,42.523c3.127,14.972,4.754,34.369,5.596,47.006c0.24,3.593-2.867,19.216-1.811,29.183
			c0.608,5.744,2.18,8.26,2.417,9c3.826,9.789,6.282,19.992,6.177,30.86c-1.642,7.804-3.639,13.248-3.914,19.683
			c-0.217,5.094-0.647,9.932-0.171,14.375c0.524,4.944,2.114,9.287,2.925,14.182c0.658,3.955,0.612,8.402,0.691,12.914
			c0.136,7.621-1.39,19.17-2.581,28.74c-0.043,1.262-0.118,2.219,0.888,2.899c11.378,6.783,4.991,31.906,7.723,46.607
			c0.16,1.307,0.095,1.576,1.185,2.262c5.211,3.285,21.665,5.515,33.091,6.181c19.05,1.112,36.498,1.143,62.869,8.549
			c4.874,1.367,12.221,2.664,17.195,2.975c7.217,0.703,13.805,1.492,19.879,1.494l29.869,0.012
			c28.502,0.017,41.523-8.151,64.037-9.514c36.395-3.842,65.441-3.358,69.02-11.238c0.479-5.633,0.683-12.745,0.806-21.396
			c0.162-11.34-0.148-23.955,7.875-29.127c-2.547-16.721-3.949-34.33-0.933-43.771c2.957-7.069,1.947-16.021,1.939-24.274
			c-0.002-4.982-3.766-9.387-3.496-14.096c0.256-4.546-1.633-9.425-1.291-13.81c0.871-13.172,5.965-21.639,7.711-29.758
			c2.35-10.898,1.244-21.607,0.32-46.379c-0.131-3.637,0.412-6.408,1.104-10.043c5.299-27.992,9.392-50.397,7.789-70.576
			c5.512-7.695,7.318-21.65,10.318-30.413c-39.355-28.895-9.563-78.019,30.272-59.191c32.441-81.604,21.14-135.596-53.438-155.216
			c-19.053-5.013-35.598-4.707-47.271-7.983c-5.145-2.743-9.934-5.196-18.568,3.555c-0.766,0.71-2.461,0.155-3.196-0.169
			c-5.981-2.64-11.121-9.43-17-4.506C312.9,40.879,262.821,29.746,228.38,12.077c-2.372-1.877-4.471-2.111-6.648-1.204
			c-1.32,0.553-2.541,1.493-3.714,2.476c-2.117,1.78-4.58,3.13-7.484,4.132c-0.664,0.23-0.891,0.141-1.53-0.203
			c-3.678-1.337-4.724-4.671-7.901-5.163c-4.295-0.665-11.263,1.802-18.006,2.475c-13.595,1.358-29.103,3.381-43.55,7.682
			c-6.463,1.925-13.054,4.005-18.798,6.433c-6.632,2.802-12.25,5.959-17.065,8.11C60.286,63.2,66.302,110.803,89.045,176.761
			C130.574,156.835,159.902,207.757,120.577,235.659z"/>
	</g>
	<path id="back_right_side_com" fill="#F4F4F4" stroke="#807F7F" stroke-width="0.2015" stroke-miterlimit="2.613" d="
		M454.596,227.411c-18.315,120.724-24.395,235.729-26.475,348.868c11.504-1.332,19.129-3.187,20.854-6.979
		c0.479-5.633,0.683-12.746,0.806-21.396c0.162-11.34-0.148-23.955,7.877-29.127c-2.549-16.722-3.951-34.33-0.935-43.771
		c2.957-7.07,1.947-16.021,1.939-24.274c-0.002-4.982-3.766-9.388-3.496-14.097c0.256-4.545-1.633-9.424-1.291-13.809
		c0.871-13.172,5.967-21.64,7.711-29.758c2.351-10.898,1.244-21.607,0.32-46.379c-0.131-3.638,0.412-6.408,1.104-10.043
		c5.3-27.992,9.392-50.397,7.789-70.577c3.883-5.421,5.926-13.943,7.845-21.573C468.635,239.562,457.805,233.462,454.596,227.411z"
		/>
	<path id="back_left_side_com" fill="#F4F4F4" stroke="#807F7F" stroke-width="0.2015" stroke-miterlimit="2.613" d="
		M173.373,575.822c-2.076-113.238-7.523-225.213-25.854-346.044c-4.507,8.501-14.303,15.34-22.512,20.696l1.365,4.449
		c0.64,2.233,3.071,13.891,2.888,15.688c-2.263,22.358,0.271,25.427,4.632,42.523c3.13,14.972,4.756,34.369,5.599,47.006
		c0.237,3.591-2.87,19.216-1.812,29.183c0.606,5.744,2.178,8.258,2.415,8.998c3.826,9.789,6.282,19.992,6.18,30.862
		c-1.643,7.802-3.64,13.25-3.917,19.681c-0.217,5.094-0.646,9.932-0.171,14.375c0.524,4.944,2.116,9.289,2.925,14.184
		c0.658,3.955,0.612,8.402,0.691,12.914c0.136,7.619-1.388,19.168-2.579,28.74c-0.045,1.262-0.118,2.217,0.888,2.9
		c11.376,6.78,4.991,31.905,7.721,46.606c0.16,1.305,0.095,1.576,1.185,2.262c3.437,2.164,11.757,3.871,20.301,4.974
		L173.373,575.822z"/>
	<path id="back_right_sleeve" fill="#F4F4F4" stroke="#807F7F" stroke-width="0.216" stroke-miterlimit="2.6131" d="M516.988,58.671
		c-33.965,21.964-55.07,66.42-57.859,111.151c15.838-16.845,39.025-16.251,57.758-8.092
		C528.15,129.628,535.314,85.671,516.988,58.671z"/>
	<path id="back_left_sleeve" fill="#F4F4F4" stroke="#807F7F" stroke-width="0.216" stroke-miterlimit="2.6131" d="M84.074,161.73
		c16.19-5.543,36.951-10.008,55.651,6.487c-1.044-46.185-23.163-88.464-59.017-108.832C65.58,83.479,72.374,127.594,84.074,161.73z"
		/>
	<path id="back_shoulder" fill="#F4F4F4" stroke="#807F7F" stroke-width="0.216" stroke-miterlimit="2.6131" d="M80.708,59.387
		C93.01,35.643,132.215,19.281,184.82,14.375c9.331-1.823,13.798-2.841,16.569-2.214c3.271,0.744,4.203,3.477,8.361,5.426
		c52.865,39.064,122.052,39.319,181.447-0.425c6.24-6.698,12.735-8.007,19.49-3.899c3.653,1.149,7.551,1.845,11.25,2.157
		c46.979,3.939,78.581,17.688,95.051,43.252c-28.836,19.88-47.383,49.965-55.281,90.621l-323.608,0.004
		C129.775,101.803,107.427,75.005,80.708,59.387z"/>
	<path id="back_neck_line" fill="#F4F4F4" stroke="#807F7F" stroke-width="0.25" stroke-miterlimit="2.6131" d="M209.857,17.502
		c9.633-2.198,11.637-11.729,18.626-5.439c42.879,21.187,88.556,25.574,143.529-0.049c7.35-5.867,14.721,6.018,20.107,5.11
		C336.449,56.724,257.206,56.587,209.857,17.502z"/>
	<path id="back_left_cuffs" fill="#F4F4F4" stroke="#807F7F" stroke-width="0.216" stroke-miterlimit="2.6131" d="M125.044,251.429
		l-4.598-15.774c38.23-26.572,11.483-78.15-31.395-58.896l-4.979-15.027C150.886,134.535,181.529,219.58,125.044,251.429z"/>
	<path id="back_right_cuffs" fill="#F4F4F4" stroke="#807F7F" stroke-width="0.216" stroke-miterlimit="2.6131" d="M476.809,251.608
		l3.813-15.954c-37.154-27.356-11.682-78.362,30.908-58.896l4.807-15.245C449.52,134.316,420.324,219.761,476.809,251.608z"/>
</g>
</svg>
