<?xml version="1.0" encoding="utf-8"?>
<!-- Generator: Adobe Illustrator 16.0.0, SVG Export Plug-In . SVG Version: 6.00 Build 0)  -->
<!DOCTYPE svg PUBLIC "-//W3C//DTD SVG 1.1//EN" "http://www.w3.org/Graphics/SVG/1.1/DTD/svg11.dtd">
<svg version="1.1" xmlns="http://www.w3.org/2000/svg" xmlns:xlink="http://www.w3.org/1999/xlink" x="0px" y="0px" width="600px"
	 height="600px" viewBox="0 0 600 600" enable-background="new 0 0 600 600" xml:space="preserve">
<g id="Layer_3">
	<path id="front_body" fill="#F4F4F4" stroke="#807F7F" stroke-width="0.2015" stroke-miterlimit="2.613" d="M119.345,235.668
		c39.642-28.288,10.431-77.999-31.067-59.198C52.742,73.808,64.289,29.938,172.276,16.309c6.187-0.78,12.58-1.677,20.113-3.089
		c3.556-0.905,7.172-1.061,8.455-0.702c3.332,0.932,3.515,4.687,7.471,4.197c3.615-1.488,8.335-2.753,12.018-5.431
		c2.267-1.698,5.843-0.823,10.723,2.262c0.64,0.4,1.244,0.743,1.923,1.07c41.64,19.882,87.973,22.049,141.804-3.607
		c0.729-0.344,1.145-0.489,1.956-0.492c5.893,0.342,9.976,4.396,15.452,6c3.929-1.899,4.57-4.897,6.485-4.614
		c6.694,0.054,18.021,3.087,22.447,3.413c6.339,0.534,11.665,1.212,18.004,2.386c96.222,13.454,106.207,69.678,74.308,158.769
		c-40.889-19.305-70.723,29.106-31.067,59.198c0,0-4.794,19.217-11.031,31.944c0,0,0.413,7.893,0.55,17.939
		c0.142,10.045-5.415,40.015-6.793,45.321c-1.38,5.312-4.129,26.766-2.091,31.808c0.14,4.016,0.353,25.498-0.268,31.207
		c-0.617,5.712-6.174,19.705-7.339,25.49c-1.164,5.779,0.459,10.656,0.875,17.4c0.412,6.743,3.112,13.693,3.938,21.116
		c0.822,7.427-1.415,18.742-2.718,22.238c-1.305,3.501-1.713,16.777-1.305,19.137c0.413,2.355,2.361,18.429,2.361,19.283
		c0,0.856-0.653,4.969-4.496,8.967c-3.839,4-3.122,12.344-3.535,19.657c-0.232,7.358,0.81,24.811-0.293,26.96
		c-1.101,2.154-18.078,6.972-30.551,6.059c-10.503,2.305-38.549-4.06-66.187,5.432c-6.85,2.354-20.959-1.252-34.041,4.466
		l-35.243,0.442c-13.797-2.873-29.013-2.575-30.896-3.41c-3.855-1.721-8.102-4.751-12.511-5.184
		c-4.411-0.429-48.096-2.216-57.354-2.216c-9.758-1.081-19.323,2.175-32.204-5.96c-0.103-0.214-0.989-7.408-0.717-9.543
		c-0.136-0.56,0.025-6.433-0.103-12.639c-0.133-6.463-0.56-13.304-0.596-15.05c-0.07-3.429-1.862-8.998-4.055-10.427
		c-4.24-3.183-4.25-1.707-2.043-16.298c2.203-12.914,0.53-27.422,0.53-28.277c0-0.857-2.703-10.27-3.255-16.87
		c-0.24-2.87,0.733-8.035,0.4-12.39c-0.43-5.648,2.938-10.57,3.482-13.814c0.499-2.96,0.816-10.043-0.268-17.092
		c-1.021-6.619-3.393-13.172-4.953-17.523c-1.153-2.815-2.266-6.432-2.862-10.622c-0.672-4.708,0.905-10.103,0.666-14.859
		c-0.225-4.428,0.724-8.434,1.179-11.471c-0.389-10.419-0.466-20.28-1.461-29.305c-1.043-9.459-3.035-18.02-4.343-25.646
		c-7.941-31.474-1.295-35.666-4.145-41.143C126.317,260.354,122.273,244.2,119.345,235.668z"/>
	<path id="front_body_clippath" fill="none" d="M119.345,235.668c39.642-28.288,10.431-77.999-31.067-59.198
		C52.742,73.808,64.289,29.938,172.276,16.309c6.187-0.78,12.58-1.677,20.113-3.089c3.556-0.905,7.172-1.061,8.455-0.702
		c3.332,0.932,3.515,4.687,7.471,4.197c3.615-1.488,8.335-2.753,12.018-5.431c2.267-1.698,5.843-0.823,10.723,2.262
		c0.64,0.4,1.244,0.743,1.923,1.07c41.64,19.882,87.973,22.049,141.804-3.607c0.729-0.344,1.145-0.489,1.956-0.492
		c5.893,0.342,9.976,4.396,15.452,6c3.929-1.899,4.57-4.897,6.485-4.614c6.694,0.054,18.021,3.087,22.447,3.413
		c6.339,0.534,11.665,1.212,18.004,2.386c96.222,13.454,106.207,69.678,74.308,158.769c-40.889-19.305-70.723,29.106-31.067,59.198
		c0,0-4.794,19.217-11.031,31.944c0,0,0.413,7.893,0.55,17.939c0.142,10.045-5.415,40.015-6.793,45.321
		c-1.38,5.312-4.129,26.766-2.091,31.808c0.14,4.016,0.353,25.498-0.268,31.207c-0.617,5.712-6.174,19.705-7.339,25.49
		c-1.164,5.779,0.459,10.656,0.875,17.4c0.412,6.743,3.112,13.693,3.938,21.116c0.822,7.427-1.415,18.742-2.718,22.238
		c-1.305,3.501-1.713,16.777-1.305,19.137c0.413,2.355,2.361,18.429,2.361,19.283c0,0.856-0.653,4.969-4.496,8.967
		c-3.839,4-3.122,12.344-3.535,19.657c-0.232,7.358,0.81,24.811-0.293,26.96c-1.101,2.154-18.078,6.972-30.551,6.059
		c-10.503,2.305-38.549-4.06-66.187,5.432c-6.85,2.354-20.959-1.252-34.041,4.466l-35.243,0.442
		c-13.797-2.873-29.013-2.575-30.896-3.41c-3.855-1.721-8.102-4.751-12.511-5.184c-4.411-0.429-48.096-2.216-57.354-2.216
		c-9.758-1.081-19.323,2.175-32.204-5.96c-0.103-0.214-0.989-7.408-0.717-9.543c-0.136-0.56,0.025-6.433-0.103-12.639
		c-0.133-6.463-0.56-13.304-0.596-15.05c-0.07-3.429-1.862-8.998-4.055-10.427c-4.24-3.183-4.25-1.707-2.043-16.298
		c2.203-12.914,0.53-27.422,0.53-28.277c0-0.857-2.703-10.27-3.255-16.87c-0.24-2.87,0.733-8.035,0.4-12.39
		c-0.43-5.648,2.938-10.57,3.482-13.814c0.499-2.96,0.816-10.043-0.268-17.092c-1.021-6.619-3.393-13.172-4.953-17.523
		c-1.153-2.815-2.266-6.432-2.862-10.622c-0.672-4.708,0.905-10.103,0.666-14.859c-0.225-4.428,0.724-8.434,1.179-11.471
		c-0.389-10.419-0.466-20.28-1.461-29.305c-1.043-9.459-3.035-18.02-4.343-25.646c-7.941-31.474-1.295-35.666-4.145-41.143
		C126.317,260.354,122.273,244.2,119.345,235.668z"/>
	<g id="front_body_pattern_1_">
	</g>
</g>
<g id="Layer_1">
	<path id="front_right_side_com" fill="#F4F4F4" stroke="#807F7F" stroke-width="0.2015" stroke-miterlimit="2.613" d="
		M122.067,244.555c10.451-4.563,21.005-9.946,23.889-15.385c18.397,121.264,24.03,236.688,26.122,350.339
		c-6.236-0.042-12.91-0.73-20.841-5.742c-0.103-0.214-0.99-7.407-0.717-9.543c-0.135-0.56,0.026-6.433-0.102-12.639
		c-0.134-6.463-0.56-13.304-0.596-15.05c-0.069-3.428-1.862-8.998-4.055-10.426c-4.24-3.184-4.25-1.708-2.043-16.299
		c2.203-12.914,0.53-27.422,0.53-28.277c0-0.857-2.703-10.27-3.255-16.87c-0.24-2.87,0.733-8.035,0.401-12.389
		c-0.431-5.649,2.938-10.571,3.481-13.817c0.499-2.958,0.817-10.041-0.267-17.09c-1.021-6.619-3.393-13.172-4.954-17.523
		c-1.153-2.815-2.266-6.432-2.861-10.622c-0.672-4.708,0.905-10.103,0.666-14.859c-0.225-4.428,0.724-8.434,1.178-11.471
		c-0.389-10.419-0.466-20.28-1.461-29.305c-1.043-9.459-3.035-18.019-4.343-25.646c-7.941-31.476-1.295-35.667-4.145-41.144
		C126.997,263.342,124.453,252.981,122.067,244.555z"/>
	<path id="front_left_side_com" fill="#F4F4F4" stroke="#807F7F" stroke-width="0.2015" stroke-miterlimit="2.613" d="
		M455.745,229.064c3.563,6.72,13.825,13.852,22.986,19.271c-1.936,6.119-4.511,13.392-7.396,19.276c0,0,0.413,7.893,0.55,17.939
		c0.142,10.045-5.415,40.015-6.792,45.321c-1.381,5.312-4.128,26.766-2.092,31.808c0.14,4.016,0.354,25.498-0.268,31.207
		c-0.617,5.712-6.174,19.707-7.339,25.49c-1.165,5.779,0.46,10.656,0.875,17.4c0.412,6.742,3.112,13.693,3.938,21.116
		c0.822,7.427-1.415,18.742-2.718,22.238c-1.305,3.501-1.713,16.777-1.305,19.137c0.413,2.355,2.361,18.429,2.361,19.283
		c0,0.856-0.653,4.969-4.496,8.967c-3.839,4-3.122,12.344-3.535,19.657c-0.232,7.358,0.81,24.811-0.292,26.96
		c-0.838,1.635-10.856,4.814-21.095,5.844C431.219,466.175,437.323,350.499,455.745,229.064z"/>
	<path id="front_right_sleeve" fill="#F4F4F4" stroke="#807F7F" stroke-width="0.216" stroke-miterlimit="2.6131" d="M78.822,58.494
		c36.039,20.471,58.16,61.752,59.208,108.177c-18.648-15.85-38.313-11.098-54.586-5.524C70.812,127.708,63.614,82.709,78.822,58.494
		z"/>
	<path id="front_left_sleeve" fill="#F4F4F4" stroke="#807F7F" stroke-width="0.216" stroke-miterlimit="2.6131" d="
		M518.266,161.146c-18.828-8.202-41.878-8.26-57.8,8.673c2.803-44.961,23.974-90.321,58.112-112.401
		C537.001,84.556,529.588,128.876,518.266,161.146z"/>
	<path id="front_shoulder" fill="#F4F4F4" stroke="#807F7F" stroke-width="0.216" stroke-miterlimit="2.6131" d="M518.57,57.425
		c-13.119-20.492-38.451-33.991-79.443-39.724c-6.339-1.174-11.665-1.852-18.005-2.386c-4.428-0.324-15.751-3.357-22.445-3.413
		c-1.916-0.281-2.558,2.715-6.485,4.614c-5.477-1.602-9.563-5.657-15.452-6c-0.813,0.005-1.228,0.148-1.957,0.494
		c-53.832,25.655-100.163,23.488-141.803,3.605c-0.68-0.327-1.282-0.668-1.922-1.07c-4.881-3.084-8.457-3.959-10.723-2.261
		c-3.683,2.677-8.401,3.943-12.019,5.432c-3.957,0.489-4.14-3.268-7.47-4.198c-1.284-0.36-4.9-0.205-8.457,0.701
		c-7.531,1.412-13.925,2.311-20.112,3.089C121.55,22.71,92.107,35.787,78.825,58.495c29.594,17.12,52.307,46.916,58.547,96.898
		l324.943-0.069C467.819,118.535,484.911,79.79,518.57,57.425z"/>
	<path id="front_neck_line" fill="#F4F4F4" stroke="#807F7F" stroke-width="0.25" stroke-miterlimit="2.6131" d="M300.682,143.02
		c40.286-11.578,89.908-67.04,102.124-117.691c-6.088-8.314-21.938-13.955-26.696-15.03c-49.034,23.123-96.525,29.014-153.006-0.833
		c-6.784,4.521-22.526,10.253-23.845,13.924C204.913,63.798,248.967,122.956,300.682,143.02z"/>
	<path id="front_right_cuffs" fill="#F4F4F4" stroke="#807F7F" stroke-width="0.216" stroke-miterlimit="2.6131" d="
		M123.966,251.523l-4.619-15.855c38.424-26.709,12.031-78.551-31.069-59.198l-4.833-15.323
		C150.604,133.811,180.742,219.512,123.966,251.523z"/>
	<path id="front_left_cuffs" fill="#F4F4F4" stroke="#807F7F" stroke-width="0.216" stroke-miterlimit="2.6131" d="M477.747,251.523
		l4.619-15.855c-38.425-26.709-12.031-78.551,31.067-59.198l4.831-15.323C451.108,133.811,420.971,219.512,477.747,251.523z"/>
	<path fill="#F4F4F4" stroke="#807F7F" stroke-width="0.216" stroke-miterlimit="2.6131" d="M376.866,33.326
		c-44.501,24.191-94.96,24.604-150.625,4.237c14.539,29.943,42.585,65.155,73.946,77.845
		C334.271,104.312,356.63,79.098,376.866,33.326z"/>
</g>
</svg>
